<svg xmlns="http://www.w3.org/2000/svg" width="24.956" height="24.954" viewBox="0 0 24.956 24.954">
  <defs>
    <style>
      .cls-1 {
        fill: #fff;
      }
    </style>
  </defs>
  <path id="路径_81" data-name="路径 81" class="cls-1" d="M1794.655,1286.056h-1.511c-.305-.038-.61-.071-.913-.114a12.527,12.527,0,0,1-10.592-10.19c-.084-.461-.131-.929-.2-1.393v-1.56c.069-.5.117-1,.208-1.491a12.476,12.476,0,0,1,24.711,3.164,12.256,12.256,0,0,1-2.55,6.7c-.17.223-.35.44-.542.679.082.07.154.125.217.188.885.883,1.773,1.765,2.652,2.654a.77.77,0,0,1-.288,1.315.671.671,0,0,0-.083.047h-.292a4.5,4.5,0,0,1-.584-.416c-.908-.892-1.8-1.8-2.711-2.708-.079.064-.148.119-.215.176a12.293,12.293,0,0,1-5.943,2.762C1795.57,1285.947,1795.111,1285.995,1794.655,1286.056Zm10.188-12.474a10.919,10.919,0,1,0-10.935,10.914A10.935,10.935,0,0,0,1804.843,1273.582Z" transform="translate(-1781.444 -1261.102)"/>
</svg>
