<svg xmlns="http://www.w3.org/2000/svg" width="23.441" height="23.439" viewBox="0 0 23.441 23.439">
  <defs>
    <style>
      .cls-1 {
        fill: #fff;
      }
    </style>
  </defs>
  <g id="ico-ig" transform="translate(-2280.947 -1108.908)">
    <g id="组_14" data-name="组 14">
      <path id="路径_161" data-name="路径 161" class="cls-1" d="M2304.388,1114.858v11.535c-.014.074-.027.148-.042.222a11.217,11.217,0,0,1-.269,1.248,6.393,6.393,0,0,1-6.144,4.477c-3.508.013-7.016,0-10.524,0a6.1,6.1,0,0,1-3.129-.806,6.3,6.3,0,0,1-3.321-5.719c-.022-3.462-.01-6.924,0-10.387a6.151,6.151,0,0,1,.119-1.294,6.324,6.324,0,0,1,4.774-5.034c.342-.1.7-.131,1.052-.194h11.535c.239.039.481.064.717.117a6.35,6.35,0,0,1,5.04,4.782C2304.291,1114.149,2304.325,1114.508,2304.388,1114.858Zm-1.381,5.791c0-1.724.007-3.448-.005-5.171a5.706,5.706,0,0,0-.121-1.2,5.016,5.016,0,0,0-5-3.984q-5.217-.014-10.434,0a4.8,4.8,0,0,0-2.13.449,4.954,4.954,0,0,0-2.978,4.725c-.021,3.44-.01,6.88,0,10.32a5.49,5.49,0,0,0,.118,1.18,5.012,5.012,0,0,0,4.99,3.994q5.229.018,10.457,0a4.947,4.947,0,0,0,4.168-2.133,5.01,5.01,0,0,0,.935-3.028Q2303.009,1123.223,2303.007,1120.649Z"/>
      <path id="路径_162" data-name="路径 162" class="cls-1" d="M2299.094,1120.636a6.423,6.423,0,1,1-6.4-6.433A6.433,6.433,0,0,1,2299.094,1120.636Zm-6.435,5.028a5.038,5.038,0,1,0-5.027-5.062A5.041,5.041,0,0,0,2292.659,1125.664Z"/>
      <path id="路径_163" data-name="路径 163" class="cls-1" d="M2301.43,1113.814a1.95,1.95,0,1,1-1.947-1.947A1.968,1.968,0,0,1,2301.43,1113.814Zm-1.385-.007a.564.564,0,0,0-.574-.556.574.574,0,0,0-.554.557.584.584,0,0,0,.566.572A.574.574,0,0,0,2300.045,1113.807Z"/>
    </g>
  </g>
</svg>
