<svg xmlns="http://www.w3.org/2000/svg" width="23.441" height="23.439" viewBox="0 0 23.441 23.439">
  <defs>
    <style>
      .cls-1 {
        fill: #fff;
      }
    </style>
  </defs>
  <g id="ico-line" transform="translate(-2355.559 -1108.908)">
    <path id="路径_166" data-name="路径 166" class="cls-1" d="M2379,1114.858v11.535c-.014.074-.027.148-.042.222a11,11,0,0,1-.269,1.248,6.394,6.394,0,0,1-6.144,4.477c-3.508.013-7.016,0-10.524,0a6.1,6.1,0,0,1-3.129-.806,6.3,6.3,0,0,1-3.321-5.719c-.022-3.462-.01-6.924,0-10.387a6.087,6.087,0,0,1,.12-1.294,6.321,6.321,0,0,1,4.773-5.034c.342-.1.7-.131,1.053-.194h11.534c.239.039.481.064.717.117a6.348,6.348,0,0,1,5.04,4.782C2378.9,1114.149,2378.937,1114.508,2379,1114.858Zm-1.381,5.791c0-1.724.008-3.448,0-5.171a5.69,5.69,0,0,0-.121-1.2,5.016,5.016,0,0,0-5-3.984q-5.219-.014-10.435,0a4.793,4.793,0,0,0-2.129.449,4.954,4.954,0,0,0-2.979,4.725c-.021,3.44-.01,6.88,0,10.32a5.474,5.474,0,0,0,.118,1.18,5.012,5.012,0,0,0,4.99,3.994q5.229.018,10.457,0a4.947,4.947,0,0,0,4.168-2.133,5.01,5.01,0,0,0,.935-3.028Q2377.621,1123.223,2377.619,1120.649Z"/>
    <g id="组_16" data-name="组 16">
      <path id="路径_167" data-name="路径 167" class="cls-1" d="M2359.65,1123.266a.516.516,0,0,1-.137-.359v-4.734a.385.385,0,0,1,.1-.263.3.3,0,0,1,.234-.112.31.31,0,0,1,.238.112.38.38,0,0,1,.1.263v4.407c0,.064.029.1.087.1h2.263a.312.312,0,0,1,.238.112.381.381,0,0,1,.1.263.367.367,0,0,1-.1.259.32.32,0,0,1-.238.107h-2.559A.422.422,0,0,1,2359.65,1123.266Z"/>
      <path id="路径_168" data-name="路径 168" class="cls-1" d="M2363.762,1123.35a.372.372,0,0,1-.1-.259v-4.918a.386.386,0,0,1,.1-.263.3.3,0,0,1,.234-.112.309.309,0,0,1,.238.112.379.379,0,0,1,.1.263v4.918a.366.366,0,0,1-.1.259.318.318,0,0,1-.238.107A.307.307,0,0,1,2363.762,1123.35Z"/>
      <path id="路径_169" data-name="路径 169" class="cls-1" d="M2365.816,1123.35a.372.372,0,0,1-.1-.259v-4.759a.555.555,0,0,1,.14-.375.434.434,0,0,1,.335-.159h.094a.5.5,0,0,1,.4.239l2.659,4.248c.024.032.044.048.058.048s.019-.008.029-.024a.1.1,0,0,0,.014-.055v-4.081a.387.387,0,0,1,.1-.263.3.3,0,0,1,.234-.112.309.309,0,0,1,.238.112.379.379,0,0,1,.1.263v4.758a.528.528,0,0,1-.144.371.451.451,0,0,1-.339.155h-.087a.436.436,0,0,1-.22-.06.491.491,0,0,1-.169-.155l-2.674-4.272c-.024-.032-.043-.048-.058-.048s-.019.008-.028.024a.1.1,0,0,0-.015.056v4.089a.367.367,0,0,1-.1.259.318.318,0,0,1-.238.107A.307.307,0,0,1,2365.816,1123.35Z"/>
      <path id="路径_170" data-name="路径 170" class="cls-1" d="M2371.6,1123.31a.373.373,0,0,1-.1-.259v-4.838a.386.386,0,0,1,.1-.263.3.3,0,0,1,.234-.112h2.891a.291.291,0,0,1,.223.1.357.357,0,0,1,.094.247.346.346,0,0,1-.094.243.3.3,0,0,1-.223.1h-2.465q-.087,0-.087.1v1.65h2.292a.294.294,0,0,1,.224.1.357.357,0,0,1,.093.247.346.346,0,0,1-.093.243.3.3,0,0,1-.224.1h-2.292v1.658q0,.1.087.1h2.465a.291.291,0,0,1,.223.1.357.357,0,0,1,.094.247.346.346,0,0,1-.094.243.3.3,0,0,1-.223.1h-2.891A.307.307,0,0,1,2371.6,1123.31Z"/>
    </g>
  </g>
</svg>
