<svg xmlns="http://www.w3.org/2000/svg" width="146" height="13.381" viewBox="0 0 146 13.381">
  <defs>
    <style>
      .cls-1 {
        fill: #1a1a1a;
      }
    </style>
  </defs>
  <g id="img-logo" transform="translate(-2271.119 -35.895)">
    <g id="组_7" data-name="组 7">
      <path id="路径_1" data-name="路径 1" class="cls-1" d="M2272.722,37.244l-.041-.042C2272.666,37.235,2272.7,37.231,2272.722,37.244Z"/>
      <path id="路径_2" data-name="路径 2" class="cls-1" d="M2275.188,38.906h0C2275.2,38.913,2275.194,38.912,2275.188,38.906Z"/>
      <path id="路径_3" data-name="路径 3" class="cls-1" d="M2273.677,36.531l.006,0C2273.689,36.508,2273.684,36.514,2273.677,36.531Z"/>
      <path id="路径_4" data-name="路径 4" class="cls-1" d="M2274.107,39.358l0,0,0,0Z"/>
      <path id="路径_5" data-name="路径 5" class="cls-1" d="M2274.04,39.388c.039-.061.05-.051.067-.034l.008-.157Z"/>
      <path id="路径_6" data-name="路径 6" class="cls-1" d="M2272.667,37.846l-.034.032c0-.009-.009-.01-.007-.019-.079.064.123.038.1.11-.009.026-.03.047-.053.033l.051.05c0,.017-.03.018-.03,0l.029.083h0c.027.006.074.022.095.029-.018.026-.021-.005-.039.005l.052.032a.057.057,0,0,1-.092-.027c-.149.088.052.025-.013.146l-.034-.037c-.081.058-.04.084-.074.156.02-.025.106-.154.162-.118-.008.018-.007.039.036.051-.056.023-.031.043-.013.072l-.074.031c.037.025.073,0,.114.009.01.04-.041.077-.081.11.024.065.063-.087.117-.027,0,.062.05.08.124.1,0,.046-.044.024-.054.048l.072-.012c0,.007-.013.017-.022.022.037.007.065-.046.108-.027.073-.049-.045.153.068.122-.007.025-.039.03-.059.054a.368.368,0,0,0,.18-.012l0,.07c.01-.068.093-.093.156-.116l0-.013.01.008-.014,0-.005.017.024-.018.02.016a.211.211,0,0,1-.057.054l.013-.052a.457.457,0,0,0-.113.1.045.045,0,0,1,.03,0c-.011.008-.021.015-.024.023s.013,0,.033-.012l-.042.08.024-.026a.751.751,0,0,0,.038.1,1.007,1.007,0,0,1,.3-.12.552.552,0,0,0-.089.161c.015-.083-.083,0-.117-.045.018.022-.006.05-.018.058a.8.8,0,0,0,.115-.021c-.031.055-.005.051,0,.085.04-.12.095-.044.143-.066-.014.039-.039.077-.075.047.007.109.115-.11.127-.02-.01,0-.013-.01-.025.008.036-.026.081.022.057.052l-.011,0c.061.044.211.06.241-.039a1.409,1.409,0,0,1-.045.142c.046-.072.084-.15.124-.226l.04.006c-.009.1-.018.212-.064.241a.05.05,0,0,0,.075.008c-.01-.015-.011-.135,0-.141.029.107.021.059.067.148-.016-.02.016-.161.04-.156a1.163,1.163,0,0,1-.018.155c.027-.045.051-.09.074-.136a.267.267,0,0,0,.009.159c-.007-.026.06,0,.079-.012l-.03-.031c.08.017.068-.2.135-.2,0,.029,0,.18.036.193.007-.04.016-.138.028-.23l.074-.012a1.163,1.163,0,0,1-.06.253c.033.028.014.047.059.036.022.036-.016.062-.029.066l.113.007c-.021-.079.063-.1.041-.168a.945.945,0,0,1-.093.109c-.017-.082.018-.243.083-.247.025.027.026.147.033.174,0-.031.052-.072.065-.054l-.018.051c.051.019.031-.122.1-.065.017,0,.087.081.072.034a1.235,1.235,0,0,1-.131-.266l.046-.018.011.031.008-.005-.013-.029L2275,39l.011-.006c.036.062.033.159.073.2a.149.149,0,0,1-.005-.064c.023.009.024.067.053.04-.032-.079.07-.029-.017-.073.02-.038.042,0,.078-.025a.316.316,0,0,1-.05-.151l.034-.024.006.006c.059-.031.113-.019.162-.061.018.012.058.01.071.047,0-.018-.014-.045,0-.06.08.029-.028.038.054.085-.03-.04,0-.085-.005-.129-.058-.048-.057.034-.061.076a.418.418,0,0,1-.053-.1,1.6,1.6,0,0,0,.142-.144c.051-.02.1-.115.168-.145a.145.145,0,0,0-.029-.047,1.39,1.39,0,0,0,.115-.233.16.16,0,0,0,.026.012l-.015-.04v0c.013.006.028.023.043.017a.1.1,0,0,1-.038-.029c0-.016.011-.032.017-.048l0,0,0,0c0-.016.008-.032.012-.048h.006a.011.011,0,0,1,0-.01,1.159,1.159,0,0,0-.235-1.054c-.017-.02-.036-.037-.054-.056a.646.646,0,0,1,.094-.132c-.1.05.023-.195-.132-.124,0-.029.034-.021.045-.048-.046.028-.069.024-.088-.018l.011-.007c-.1-.055-.117-.121-.227-.209l-.014.058c-.023-.018-.021-.037-.028-.056-.063.071.071.035,0,.114.013-.127-.176-.069-.165-.2-.044-.012,0,.069-.047.058l0-.039-.021.044c-.026-.015-.032-.061-.027-.093.007.005.022-.005.03-.006-.03-.05-.111,0-.121-.019l.04.029c-.123.014-.276-.036-.384.052l.011.026c-.077.061-.072-.022-.161.019l0-.007c-.015.031-.022.048-.041.05.008-.036-.037-.056-.024-.1-.043.064-.012.046-.049.15a.35.35,0,0,0-.008-.047c-.022.041-.024.063-.068.074.037-.039-.031-.072.011-.123-.11-.1-.138.113-.2-.029-.024.132.1.06.074.091.025.04-.024.1-.053.089s-.079-.15-.161-.128c.008,0,.006-.011.014-.012-.04-.025-.046.058-.1.02.006.081-.048.013-.019.107l.06-.046c-.032.04-.024.157-.1.13a.15.15,0,0,1,.01-.07c-.03-.021-.026.032-.056.014-.037-.095.071-.055.088-.14-.036-.031-.056.1-.074-.01.021.134-.083.018-.088.136l-.024-.054c0,.012-.007.045-.022.051l-.01-.081c-.01.077-.108-.006-.128.05.079-.053.055.049.11.065-.047.127-.138-.1-.229,0,.008-.02.074-.012.067.026a.17.17,0,0,1-.1-.007c-.059.064.049.039.044.09-.068-.037-.013.048-.024.087l-.04-.044c-.094.038.069.108-.021.132l-.035-.083-.015.046-.043-.054c0,.071-.018.07-.062.1.04.019.08.075.058.107-.045,0-.036-.048-.064,0-.023-.032-.051-.073.009-.059-.014-.015-.021-.034-.035-.049-.052,0-.057.058-.069.075a.04.04,0,0,1,.026-.01.8.8,0,0,0,.02.118c-.026,0-.036-.02-.045-.039,0,.019.013.044,0,.068-.038-.031-.082-.056-.081-.1v.1c-.021-.006-.074.009-.084-.009-.048.033.033.15-.028.19a.049.049,0,0,1,.016.032c-.028.05-.106.084-.06.171l-.094.019c.008.059.119-.028.132.068.015.066-.078.009-.106.027.034.042.121.1.045.157-.015-.021,0-.035-.006-.054l-.052.042c-.075-.064-.043-.107-.115-.067C2272.657,37.668,2272.492,37.84,2272.667,37.846Zm.112.476c-.015-.008-.06-.019-.029-.039C2272.819,38.274,2272.791,38.295,2272.779,38.322Zm.651.611c.012,0,.019.012.021.032C2273.433,38.977,2273.428,38.96,2273.43,38.933Z"/>
      <path id="路径_7" data-name="路径 7" class="cls-1" d="M2272.73,37.252v0l-.009-.006Z"/>
      <path id="路径_8" data-name="路径 8" class="cls-1" d="M2275.122,39.215a.056.056,0,0,1-.033-.018A.026.026,0,0,0,2275.122,39.215Z"/>
      <path id="路径_9" data-name="路径 9" class="cls-1" d="M2275.724,38.311l-.016,0-.015.02Z"/>
      <path id="路径_10" data-name="路径 10" class="cls-1" d="M2275.588,38.693a.108.108,0,0,1-.047-.017l.058.051Z"/>
      <path id="路径_11" data-name="路径 11" class="cls-1" d="M2275.52,38.792c.013.017,0,.087.035.045C2275.543,38.819,2275.559,38.777,2275.52,38.792Z"/>
      <path id="路径_12" data-name="路径 12" class="cls-1" d="M2274.5,39.464c.057.028.008-.078.059-.043.009-.031-.042-.029-.031-.055C2274.5,39.4,2274.481,39.382,2274.5,39.464Z"/>
      <path id="路径_13" data-name="路径 13" class="cls-1" d="M2272.686,38.471c.017-.014.015-.023.011-.04l-.03.045Z"/>
      <path id="路径_14" data-name="路径 14" class="cls-1" d="M2272.591,37.973l.072-.023-.071.014Z"/>
      <path id="路径_15" data-name="路径 15" class="cls-1" d="M2272.523,37.515c-.007.018.005.042,0,.059C2272.516,37.532,2272.614,37.527,2272.523,37.515Z"/>
      <path id="路径_16" data-name="路径 16" class="cls-1" d="M2287.318,37.2c-.011,0-.005-.025-.031-.017-.016.034,0,.051.029.062-.006.009-.018.009-.025.011a.109.109,0,0,0,.095-.015c-.044,0-.031-.012-.081-.007C2287.295,37.219,2287.3,37.2,2287.318,37.2Z"/>
      <path id="路径_17" data-name="路径 17" class="cls-1" d="M2287.442,37.418a.031.031,0,0,0-.013-.013l.006.013Z"/>
      <path id="路径_18" data-name="路径 18" class="cls-1" d="M2286.565,36.337a.169.169,0,0,1-.007.032C2286.568,36.346,2286.6,36.359,2286.565,36.337Z"/>
      <path id="路径_19" data-name="路径 19" class="cls-1" d="M2287.438,37.427l0-.009a.018.018,0,0,0-.013,0C2287.431,37.421,2287.436,37.422,2287.438,37.427Z"/>
      <path id="路径_20" data-name="路径 20" class="cls-1" d="M2284.531,38.554a.075.075,0,0,0-.007-.033l-.009.005Z"/>
      <path id="路径_21" data-name="路径 21" class="cls-1" d="M2286.033,38.636Z"/>
      <path id="路径_22" data-name="路径 22" class="cls-1" d="M2283.793,37.528l.021-.008c.025.014-.008.024-.01.039.016-.006.015-.024.029-.015.057.143.061.315.127.468.025.055.115-.033.109.056l-.045.006c.1.068.144.194.257.243-.012,0-.02.011-.028,0,0,.04.065.061.081.043.011.014-.012.019-.012.036s.071.009.062.04c0,.005-.011,0-.016,0,.021,0,.056.048.065.011.024.039.074.033.091.069.038-.021.052.053.085.01-.031.048.042.076.078.064-.016.011.012.026-.007.042.027.014.058.015.065-.013.024.086.122-.007.12.084l.259.01c-.016.055-.086-.015-.1.042.081,0,.132-.041.2-.015.018.01-.015.023-.023.031.078-.013.146.025.215,0,0,.005-.008.01-.015.014.013,0,.031.01.03-.016l-.013.007c-.018-.039.055-.074.057-.1-.024.074.063.018.028.111a.034.034,0,0,0,.018-.034c.012,0,.017.014,0,.034.047-.015.029-.041.072-.042,0,.012-.008.018-.012.032.021-.025.04-.051.076-.043,0,.007,0,.017-.007.018.062-.008.1-.075.164-.061-.011.056.025.014.037.059l.033-.021-.019-.02c.032-.005.051-.043.081-.034l-.019.023.055-.022-.036-.009c.025-.031-.017-.056.026-.054-.007.007.029-.007.052.016.01-.018.021-.037.046-.033.009.013.01.051.016.059,0-.041.067-.032.071-.077a.074.074,0,0,0,.009.039V38.59c.017.005.021.008.025.028.042-.01-.032-.051.024-.045,0,0,0,.008-.006.015.053-.005.085-.053.134-.057.03.038-.034.027,0,.057.061-.033.106-.107.17-.125h-.014c-.02-.064.058.007.074-.036-.005.008.007.038,0,.03.046-.01.074-.057.123-.107v.019c.031,0,.064-.027.092-.034,0-.019.015-.025-.007-.041.126.038.114-.13.221-.1-.007,0-.01.024,0,.021l.048-.052c-.021-.02-.018-.009-.042-.019a.056.056,0,0,1,.018-.05c-.012.033.028.037.049.041-.007-.006-.009-.016-.016-.022.06.016-.032-.049.026-.053l.008.012c.009-.017.006-.043.022-.054.029.018,0,.025.016.045.019-.022-.008-.081.031-.078,0,.015-.01.028-.012.042.049.007.042,0,.061-.016h0l.044-.027-.016,0c-.05-.08.03-.068,0-.138.025.065.023.022.054.044.016-.006.035-.017.042-.007-.015-.034.04-.025.014-.074.012,0,.012-.022.037-.005,0-.033-.022,0-.035-.01-.022-.055.088-.088.045-.17-.012-.06-.05-.076-.069-.12V37.5c.02-.013.041.016.041.016a.061.061,0,0,0,0-.076c.011,0,.019,0,.032-.011,0-.022-.045-.009-.032-.04a.177.177,0,0,1,.052.015.665.665,0,0,0-.06-.07c.018-.012.037.007.051.014-.016-.029-.042-.074-.076-.07l0,.022c-.005-.009.025-.015.034-.009.033.017,0,.04-.012.044l-.013-.016c-.061.037.029.067.031.108l-.044-.007a.514.514,0,0,0-.1-.244l0,0c.018-.011.036-.022.052-.034,0,.005-.006.011,0,.015l.039-.014-.022-.014,0,0a.09.09,0,0,0,.03-.072l-.052-.01.014-.027.022.025c.009-.031-.017-.026-.037-.027a.057.057,0,0,0,.014-.033l-.068.005c.014-.018.046-.015.039-.043-.032,0-.028.046-.061.033.009-.031.028-.041,0-.044a.026.026,0,0,1,.03-.011c-.026,0-.039-.036-.07-.024.012-.036-.05-.044-.008-.079a.114.114,0,0,1-.07-.009c.071-.021-.044-.052.012-.095-.059.023-.083-.045-.137-.053,0,0,.015-.005.016,0-.015-.021-.008-.039-.013-.058-.035.034-.072.016-.107.025.009-.055.052-.031.075-.071-.025.031-.066-.005-.08.027,0-.037-.006-.024.011-.063-.043.045-.024-.006-.063.011-.007-.045.03-.051-.011-.059,0-.026.037-.022.037-.022-.03-.025-.042.024-.065.04-.044-.017,0-.039.006-.068-.031-.007-.072.013-.089,0,0-.007,0-.012.011-.017-.046.014-.074-.05-.129-.029l0-.012a.217.217,0,0,1-.03.055c-.015-.008-.041.009-.031-.02.008.006.016,0,.025-.009l-.022,0c.01-.045.028,0,.045-.027-.037-.007-.088,0-.1-.021.017-.039.06.019.05-.031l.026.035c.008-.073.019.018.032-.058-.04-.041-.064-.013-.1-.051-.022.014-.014.032-.036.046-.085,0,0-.122-.08-.1-.026.018-.053.063-.077.021l.033-.037c-.047-.026-.056.05-.093,0,.017-.013.044,0,.039-.006-.017-.049-.034.014-.058,0l.011-.041c-.055-.015-.122-.01-.183-.022.008-.011.022-.02.013-.037a.628.628,0,0,1-.233-.1l-.039.03a.016.016,0,0,1,0-.025c-.031-.018-.005.023-.023.035s-.022-.024-.009-.034l-.068.022-.037.01-.016.006a.021.021,0,0,1-.016-.007.093.093,0,0,1-.03-.026l.014-.007c-.039-.028-.07.058-.1.014l.009,0c-.09-.041-.2-.021-.269-.079-.015.052-.1-.024-.1.051-.057-.033-.042-.049-.125-.062-.022,0-.024.05-.048.063l-.008-.038-.026.047-.029-.041-.022.016a.029.029,0,0,1,.026.022.085.085,0,0,1-.1-.018c-.025.021-.051.04-.074.063,0-.015.008-.027.016-.04-.031.055-.024-.034-.052.017.009.006.007.022.009.03-.03-.014-.076.009-.1.035l-.006-.026a.958.958,0,0,0-.178.127c.029-.006.051.035.036.051l-.031-.027c0,.028.027,0,.023.04-.024.013-.043-.025-.038-.045l-.018.032c-.009-.008-.007-.018-.015-.032.006.028-.072,0-.059.053l-.009-.007a.9.9,0,0,0-.112.132c.026.025,0,.036.014.069-.036.026-.09.047-.117.1-.007.041.018.026.026.051-.029-.016-.054.031-.059-.005a.4.4,0,0,0-.049.16c.015,0,.024-.009.032,0s-.026.024-.039.016V36.73c.007.1-.165.169-.115.262l0-.005.019.08c-.01.034-.021-.024-.043,0,.041.089-.022.13.011.2C2283.726,37.321,2283.836,37.45,2283.793,37.528Zm3.116.675a.111.111,0,0,1-.017-.025l.018-.012A.033.033,0,0,1,2286.909,38.2Zm.442-.559-.034,0,.006-.027A.062.062,0,0,1,2287.351,37.644Zm.02-.193a.052.052,0,0,1-.035.006c0-.01,0-.02,0-.03A.275.275,0,0,1,2287.371,37.451ZM2286,36.119l.017,0-.018,0Zm-.04-.011c0,.012-.008.023-.015.02s-.008-.019-.015-.032Z"/>
      <path id="路径_23" data-name="路径 23" class="cls-1" d="M2284.909,35.911l0,.009.005-.009Z"/>
      <path id="路径_24" data-name="路径 24" class="cls-1" d="M2287.314,37.9l-.012-.01h0Z"/>
      <path id="路径_25" data-name="路径 25" class="cls-1" d="M2285.406,38.787h-.005C2285.388,38.794,2285.4,38.792,2285.406,38.787Z"/>
      <path id="路径_26" data-name="路径 26" class="cls-1" d="M2286.033,38.636a.117.117,0,0,1-.016.021C2286.029,38.657,2286.037,38.655,2286.033,38.636Z"/>
      <path id="路径_27" data-name="路径 27" class="cls-1" d="M2284.679,38.638h0l0,0Z"/>
      <path id="路径_28" data-name="路径 28" class="cls-1" d="M2287.413,37.274h-.006l.007.007Z"/>
      <path id="路径_29" data-name="路径 29" class="cls-1" d="M2287.434,37.544c0-.014.03-.035.021-.056l-.01,0C2287.465,37.5,2287.413,37.53,2287.434,37.544Z"/>
      <path id="路径_30" data-name="路径 30" class="cls-1" d="M2286.326,38.592l0-.03-.021.019Z"/>
      <path id="路径_31" data-name="路径 31" class="cls-1" d="M2279.454,45.407a.13.13,0,0,1-.041.037.328.328,0,0,0,.153-.109c-.069.042-.048.017-.13.067-.018-.005,0-.039.025-.057-.02.01,0-.03-.047,0C2279.38,45.4,2279.4,45.424,2279.454,45.407Z"/>
      <path id="路径_32" data-name="路径 32" class="cls-1" d="M2279.7,45.445a.04.04,0,0,0-.024.008h.015Z"/>
      <path id="路径_33" data-name="路径 33" class="cls-1" d="M2279.232,44.247c-.02,0-.042,0-.063,0C2279.218,44.252,2279.234,44.285,2279.232,44.247Z"/>
      <path id="路径_34" data-name="路径 34" class="cls-1" d="M2279.7,45.457l-.009,0a.07.07,0,0,0-.016.021C2279.688,45.462,2279.7,45.457,2279.7,45.457Z"/>
      <path id="路径_35" data-name="路径 35" class="cls-1" d="M2282.15,44.166a.143.143,0,0,0,.051-.011l-.017-.007Z"/>
      <path id="路径_36" data-name="路径 36" class="cls-1" d="M2281.422,45.512Z"/>
      <path id="路径_37" data-name="路径 37" class="cls-1" d="M2280.065,43.825l.015-.009-.015.005Z"/>
      <path id="路径_38" data-name="路径 38" class="cls-1" d="M2280.091,45.746l-.017.025h0Z"/>
      <path id="路径_39" data-name="路径 39" class="cls-1" d="M2281.829,44.918v-.007C2281.828,44.893,2281.827,44.9,2281.829,44.918Z"/>
      <path id="路径_40" data-name="路径 40" class="cls-1" d="M2281.422,45.511a.128.128,0,0,1,0-.039C2281.406,45.475,2281.4,45.48,2281.422,45.511Z"/>
      <path id="路径_41" data-name="路径 41" class="cls-1" d="M2282.117,44.295h0v0Z"/>
      <path id="路径_42" data-name="路径 42" class="cls-1" d="M2281.448,45.453c-.02,0-.026.005-.028.019C2281.431,45.469,2281.446,45.468,2281.448,45.453Z"/>
      <path id="路径_43" data-name="路径 43" class="cls-1" d="M2279.611,45.348l-.009.007h.011Z"/>
      <path id="路径_44" data-name="路径 44" class="cls-1" d="M2279.567,45.357h.024S2279.584,45.345,2279.567,45.357Z"/>
      <path id="路径_45" data-name="路径 45" class="cls-1" d="M2279.781,45.535c-.007-.014.007-.064-.018-.063l-.014.014C2279.78,45.462,2279.744,45.56,2279.781,45.535Z"/>
      <path id="路径_46" data-name="路径 46" class="cls-1" d="M2281.128,45.647l-.041-.019.027.053Z"/>
      <path id="路径_47" data-name="路径 47" class="cls-1" d="M2289.409,41.727a.978.978,0,0,0,.135.172,1.219,1.219,0,0,0,.2.141c.01.04-.029.028-.045.032.1.057.247.12.256.013-.141-.038-.13-.089-.286-.109-.079-.058-.11-.134-.078-.147C2289.556,41.82,2289.486,41.712,2289.409,41.727Z"/>
      <path id="路径_48" data-name="路径 48" class="cls-1" d="M2290.437,43.085l.028.08.014,0A.341.341,0,0,0,2290.437,43.085Z"/>
      <path id="路径_49" data-name="路径 49" class="cls-1" d="M2288.639,43.185l.009-.008C2288.637,43.175,2288.632,43.177,2288.639,43.185Z"/>
      <path id="路径_50" data-name="路径 50" class="cls-1" d="M2290.5,43.307a.245.245,0,0,0-.016-.084A.452.452,0,0,1,2290.5,43.307Z"/>
      <path id="路径_51" data-name="路径 51" class="cls-1" d="M2286.1,45.923a.261.261,0,0,1,.084.05C2286.148,45.928,2286.38,45.871,2286.1,45.923Z"/>
      <path id="路径_52" data-name="路径 52" class="cls-1" d="M2290.441,43.177a.063.063,0,0,1,.042.046l-.018-.058C2290.454,43.162,2290.444,43.163,2290.441,43.177Z"/>
      <path id="路径_53" data-name="路径 53" class="cls-1" d="M2271.335,46.64c-.026-.094-.061-.187-.078-.283A1.747,1.747,0,0,0,2271.335,46.64Z"/>
      <path id="路径_54" data-name="路径 54" class="cls-1" d="M2271.119,45.5a.626.626,0,0,0,.045-.165.111.111,0,0,0-.018-.034Z"/>
      <path id="路径_55" data-name="路径 55" class="cls-1" d="M2271.331,44.164l.008-.033Z"/>
      <path id="路径_56" data-name="路径 56" class="cls-1" d="M2290.176,42.62c.014-.06.112.068.154.121a2.572,2.572,0,0,0-.181-.3.469.469,0,0,0-.19-.164l.05.119c-.042-.058.027-.062.068-.023.14.121.1.233.081.249l-.07-.1c-.066.173.236.438.272.7l-.1-.063a2.31,2.31,0,0,0-1.065-1.475l-.022-.01a.711.711,0,0,0,.088-.084.136.136,0,0,0,.058.051l.105-.028-.144-.071h0a.136.136,0,0,0-.042-.091.5.5,0,0,0-.264-.146.775.775,0,0,0-.382.135.7.7,0,0,0-.137.01.834.834,0,0,1,.317-.126.415.415,0,0,0-.391.208.241.241,0,0,0-.159.071.952.952,0,0,0-.082.372c-.056.032-.036-.195-.133.048.017.182.124-.136.115.141a1.072,1.072,0,0,0-.061.156c-.01.037,0,.082.051.18-.018.04-.051,0-.089-.085a1.1,1.1,0,0,0,.178.317.372.372,0,0,0,.226.146.723.723,0,0,0,.049.057.4.4,0,0,0,.041.041c.03.026.066.048.1.072.049.056.087.1.041.134a.377.377,0,0,1,.216.186c-.1-.052-.051.023-.034.125s.02.227-.047.205a.389.389,0,0,1,.053.325c-.021.14-.072.292-.1.425a.108.108,0,0,1,.007-.07.723.723,0,0,1-.188.221c.078.065-.027.278-.071.412-.191.078-.014-.16-.123-.171.034.021,0,.091-.033.158s-.073.118-.028.121c-.138.053-.109.054-.209.035.059.114-.094.089-.154.217-.213.055-.1-.072-.287.071-.111.017.046-.116.046-.116-.2.106-.056.13-.077.2-.249.141-.147-.008-.252-.012-.153.085-.254.212-.385.246-.014-.011-.04-.009-.017-.036-.16.129-.544.148-.752.272a.066.066,0,0,1-.033-.017.152.152,0,0,1,.056.118c-.11.021-.2.092-.249.037.069-.008.071-.032.1-.055l-.113.042c-.116-.072.155-.051.145-.117a2.47,2.47,0,0,1-.656.157c-.044-.078.405-.071.165-.121.091,0,.181,0,.272,0-.221-.1.162-.013-.043-.129-.351.019-.386.089-.742.091-.076.052.032.068-.046.119-.5.114-.408-.19-.778-.064-.1.059-.13.168-.4.119l.089-.1c-.352,0-.2.142-.564.085.064-.039.273-.037.22-.047-.119-.036-.16-.022-.194,0a.428.428,0,0,1-.056.037c-.022.012-.027.02-.052.02a.466.466,0,0,1,.008-.084c-.038.005-.088.018-.159.034l-.119.023-.07.012-.036.006.008-.013a.952.952,0,0,1,.062-.077.309.309,0,0,0,.139-.036.4.4,0,0,1,.062-.087l.053-.06c.049-.055.095-.114.141-.173a3.9,3.9,0,0,0,.473-.751,1.991,1.991,0,0,0,0-.229c.015-.047.057-.081.056-.025.079-.21-.04-.022-.046-.131.019-.122.073-.155.079-.072a3.722,3.722,0,0,0-.053-.747c-.045-.267-.117-.535-.168-.737l.051.066c-.108-.313-.283-.255-.4-.523l.044.037a1.787,1.787,0,0,0-.824-.641,2.872,2.872,0,0,0-.939-.163c-.043.06-.215.08-.375.134s-.3.133-.283.207l-.131.051a.325.325,0,0,1-.043,0,.237.237,0,0,1-.049-.008l-.033-.049c0-.008-.016-.019-.013-.023-.038-.023-.087-.055-.143-.082-.144-.063-.246.007-.426-.017l.011-.076a2.207,2.207,0,0,0-.26.044l-.129-.1-.176.022c.07,0,.148.033.137.055a3.035,3.035,0,0,1-.678,0,2.071,2.071,0,0,0-.567.331c0-.02.026-.052.063-.086-.136.1-.049-.082-.245.129.044-.014.009.051.014.067a1.252,1.252,0,0,0-.535.568l-.017-.071a2.516,2.516,0,0,0-.413,1.484c.028-.194.116-.142.125.006l-.077.064c.056.1.021-.16.094.038,0,.191-.084.14-.117.027a1.473,1.473,0,0,0,.054.236c-.022.017-.044-.036-.077-.047a.622.622,0,0,1,.035.265.485.485,0,0,0,.1.282l-.019.021a3.182,3.182,0,0,0,.6,1.024c.057-.035.151.1.278.151a2.039,2.039,0,0,0,.15.18l.081.091c.021.023.011.016.017.024l.01.015a.207.207,0,0,0,.082.088l.009,0,.039.012a.127.127,0,0,1,.016.007.145.145,0,0,0,.037.009c.027.005.066.006.079.023-.132-.012-.217.032-.23-.014l-.121.068-.5.227c.06.008.122,0,.1.03-.085.04-.208.039-.205.005l.021-.013a2.408,2.408,0,0,1-.9.192,3.059,3.059,0,0,0-.814.1l.024-.008c-.15.035-.3.064-.455.089-.211-.014.126-.047-.03-.088a3.386,3.386,0,0,1-1.16-.094,2.59,2.59,0,0,0-.61-.332,1.2,1.2,0,0,1-.557-.473l-.017.045c-.1-.043-.055-.106-.091-.164-.022.027.033.1-.024.073a1.7,1.7,0,0,1-.376-1.211,1.21,1.21,0,0,1,.554-.979.857.857,0,0,0,.172-.162.466.466,0,0,0,.066-.165c.017-.05.029-.1.06-.182a1.074,1.074,0,0,0,.052-.139,1.121,1.121,0,0,0,.056-.209.755.755,0,0,1,.054.213,1.036,1.036,0,0,0-.208-.8.877.877,0,0,0-1.159-.256c-.1.06-.177.117-.265.178s-.157.136-.231.207-.136.154-.194.236c.015-.05,0-.066.056-.123a.8.8,0,0,0-.26.282c-.067.122-.106.234-.086.247-.068.1-.053,0-.112.058-.12.137-.115.419-.2.481-.01.008-.007-.021,0-.049-.033.138-.144.454-.055.376a4.081,4.081,0,0,0-.112.793c.072.151-.013.508.106.543-.057,0-.06.128-.033.282a1.192,1.192,0,0,0,.158.4c-.053-.048.018.166-.05.112.082.2.183.372.219.312a.952.952,0,0,0,.275.5c.119.131.231.233.24.375a4.659,4.659,0,0,0,1.5.9c-.068.1-.55-.258-.583-.155a10.547,10.547,0,0,0,1.285.417c.125.047-.086.03-.135.032a5.144,5.144,0,0,0,1.449.186c0,.01-.052.02-.1.027.09,0,.209.024.2-.027l-.089.01c-.137-.078.359-.141.372-.188-.149.152.444.026.211.219.059-.013.132-.042.117-.075.087,0,.117.022.03.067.32-.048.2-.1.488-.126,0,.025-.055.041-.082.073a1.4,1.4,0,0,1,.523-.15c-.012.017.02.032-.052.043.413-.083.669-.267,1.117-.351-.1.143.158-.014.21.067.075-.034.151-.067.225-.1l-.108-.009c.2-.071.359-.2.54-.24l-.134.095c.122-.057.246-.108.366-.168-.074.02-.149.037-.224.054.182-.126-.064-.1.206-.185a2.272,2.272,0,0,1,.318-.081h0a.87.87,0,0,1,.318-.195c.05.008.016.107.049.113.06-.114.436-.25.51-.388-.028.039-.007.082.011.084l.045-.1c.1-.032.113-.031.119.011.2-.1-.069-.078.112-.151l.037.014c-.015,0-.013.007-.033.012,0,0,0,.008-.012.015l.014-.006.085.02.118.02.249.026a4.458,4.458,0,0,1,.483.049c.089.1-.287,0-.184.086.478.029.983-.053,1.436-.041l-.085-.008c.06-.133.34.059.567-.014-.056.012-.071.076-.056.061a6.131,6.131,0,0,0,1.1-.143l-.055.039c.184.016.479-.02.677-.022.055-.039.168-.043.1-.086.629.134,1.139-.228,1.7-.19-.063.017-.146.061-.095.052.15-.045.3-.087.446-.141-.05-.046-.067-.014-.173-.036a.778.778,0,0,1,.276-.138c-.189.092.026.089.124.094-.02-.012,0-.04-.009-.055.261.019,0-.12.334-.165l-.005.035a2.764,2.764,0,0,1,.323-.185c.077.037-.106.085-.094.135.174-.081.283-.265.459-.292-.06.055-.16.113-.225.161a.657.657,0,0,0,.34-.1l-.013.005c.1-.039.2-.1.294-.144l-.081.028c.1-.268.378-.313.529-.617-.148.288.007.08.043.149.078-.039.178-.12.169-.079.057-.156.217-.162.272-.4.028.007.1-.137.128-.075.088-.189-.061.02-.077-.012a2.648,2.648,0,0,1,.256-.476,1.188,1.188,0,0,0,.178-.613,2.344,2.344,0,0,0-.084-.714c0-.037,0-.073,0-.11.034-.056.081.115.081.115a1.079,1.079,0,0,0,.013-.262,1.606,1.606,0,0,0-.056-.248c.024.033.042-.008.054-.067-.042-.143-.106-.076-.122-.269a.362.362,0,0,1,.132.116,1.249,1.249,0,0,0-.119-.239C2290.273,42.77,2290.228,42.694,2290.176,42.62Zm-10.818,1.042c.007.015.028.016.047.027a.066.066,0,0,0-.023.015C2279.365,43.686,2279.352,43.666,2279.358,43.662Zm0,.068-.008.014.007-.015Zm.059,1.583.069-.047-.032,0,0,0a.273.273,0,0,0,.078-.116l-.08.014.037-.044.023.023c.03-.047-.014-.026-.048-.018a.155.155,0,0,0,.041-.05l-.112.033c.035-.029.083-.037.09-.072-.053.014-.074.072-.12.065.033-.045.072-.063.023-.058a.1.1,0,0,1,.057-.024c-.039,0-.038-.035-.1-.013.046-.049-.047-.051.051-.1-.026.007-.092.009-.1,0,.132-.027-.021-.065.112-.114-.119.026-.08-.056-.154-.075.01,0,.029,0,.025,0,0-.025.032-.042.051-.062a.366.366,0,0,1-.189-.011c.083-.051.116-.01.2-.041-.076.021-.089-.029-.151-.006a.236.236,0,0,1,.1-.051c-.121.019-.024-.015-.1-.02.054-.041.11-.025.071-.053a.1.1,0,0,1,.081,0c0-.031-.091,0-.144-.005-.03-.039.066-.026.111-.043-.027-.021-.112-.036-.108-.056a.1.1,0,0,1,.04,0c-.075-.027,0-.076-.091-.115l.023,0a.925.925,0,0,1-.126-.007c0-.017-.055-.04.005-.039,0,.011.022.014.04.021l-.025-.021c.088,0,.028.028.092.036-.028-.035-.086-.087-.059-.109.084.013.017.064.1.045l-.039.032c.138-.008-.013.019.133.016.033-.037-.036-.057,0-.093-.042-.022-.068-.015-.11-.038-.06-.1.215.019.127-.061-.047-.032-.143-.084-.075-.093l.08.053c.028-.032-.109-.087-.029-.1.028.027.01.047.023.047.08.012-.036-.046-.024-.068l.074.042c.016-.044,0-.126.021-.169a.15.15,0,0,0,.053.056c.012-.067.1-.064.168-.035,0-.025,0-.049-.007-.075.006,0,.02.028.02.043.029.02-.014-.044-.013-.074.011-.01.029.034.028.057.012-.072.093-.158.143-.082l-.008.022c.031.031.038-.151.071-.081l-.007.012c.069.033.175,0,.168.12.063-.088.019.065.109-.048-.016.077-.047.1-.058.149,0,.012.082-.041.1-.034l-.065.04a.485.485,0,0,1,.081-.022l-.078.051.023,0a.123.123,0,0,1,.047-.033c.021,0,.015.024,0,.042a.136.136,0,0,1-.049.074.851.851,0,0,0,.12.1c-.028.014-.051,0-.076-.01.106.03-.063.055.039.08.009-.018.041-.021.054-.029a.14.14,0,0,0,.09.151l-.046.029a.734.734,0,0,0,.308.184c-.03-.041.022-.119.053-.114l-.021.08c.039-.038-.018-.042.044-.081.032.024-.007.1-.041.111a.3.3,0,0,0,.059-.007c-.005.024-.021.032-.035.06.035-.041.071.106.125.029l0,.025a.81.81,0,0,0,.277-.008c0-.071.037-.055.057-.115a.369.369,0,0,0,.236.014c.043-.053-.006-.061,0-.108.029.058.1.01.085.073a.394.394,0,0,0,.177-.209c-.029-.008-.048-.007-.058-.027.009-.021.052-.02.074,0v.009c.013-.086.093-.121.165-.186s.126-.143.072-.21l.006.007-.063-.113c0-.009.005-.013.009-.014s.007,0,.011,0,.04.034.067.011l-.007-.009c-.045-.014-.041-.027-.03-.034s.022-.008,0-.036c.088.042.084.043.083.027s0-.039.029.017l-.017-.042c-.011-.042.013.023.017.032a.446.446,0,0,1-.02-.061c.009-.032.067-.015.072.017s-.009.069-.008.1.195-.126.132-.027l-.077.032c.121.011.064.144.156.213-.02,0-.044,0-.045-.007-.057.029.008.067.057.064,0,.015-.044.007-.068.018s.078.042.019.054a.032.032,0,0,1-.025-.008c.031.012-.005.055.063.045-.036.032.026.069-.018.092.073.03-.047.051.059.078-.108-.025-.1.038-.06.076-.03-.017-.039.009-.081-.014,0,.024.006.052.062.068-.143-.006.062.138-.11.091a.531.531,0,0,1-.011.27c-.091-.065.041-.079-.062-.139,0,.082.055.177-.015.221-.024.006-.031-.039-.043-.055-.008.088-.1.106-.1.2a.054.054,0,0,1-.013-.031c-.006.012-.034.012,0,.045v-.019c.071.033.076.145.1.174-.09-.117-.075.027-.183-.129a.1.1,0,0,0,.037.061c-.017,0-.034-.008-.052-.045-.015.054.035.08,0,.111-.017-.018-.017-.031-.034-.055.017.05.035.1-.008.114-.009-.013-.025-.024-.017-.032-.043.05,0,.173-.084.187-.054-.1-.042-.01-.106-.078l-.012.047.042.024c-.028.021-.008.093-.051.089l0-.046-.04.055.052,0c0,.06.078.089.024.1,0-.013-.03.02-.079-.011,0,.033.009.068-.027.066-.024-.02-.06-.084-.076-.1.035.071-.053.066-.02.144a.246.246,0,0,0-.044-.065l.027.059c-.026-.006-.033-.013-.055-.045-.047.02.085.084.006.079,0-.007-.007-.013,0-.027-.064.014-.068.1-.131.107-.068-.065.025-.046-.037-.1-.052.06-.064.186-.138.213h.017c.069.114-.083-.019-.078.054a.132.132,0,0,0-.026-.054c-.052.012-.071.093-.094.161l-.009-.035c-.031-.015-.051.015-.07.01,0,.04-.009.042.008.091-.052-.1-.064-.089-.1-.066s-.082.04-.1-.052c.01,0,.034-.02.026-.023l-.081,0c-.015.056,0,.036-.005.084-.021.028-.051.045-.069.038.047-.023.034-.086.033-.121,0,.017-.016.033-.022.05,0-.109-.051.1-.075.02l.015-.027c-.025.006-.058.035-.075.018.019-.064.032-.019.056-.069-.029-.008-.108.089-.106.017.02-.011.038,0,.057-.014.006-.084-.005-.067-.02-.088v0l-.029-.054,0,.025c-.112.137-.083-.006-.182.067.1-.069.037-.05.077-.114,0-.025-.006-.054.009-.07-.051.041-.009-.06-.082,0,.011-.022-.02-.015.016-.064-.035,0-.016.039-.034.064-.086.045-.037-.142-.156-.088-.069,0-.124.05-.187.055l-.012-.008a.116.116,0,0,1,.062-.049c0-.046-.022-.056-.062-.053a.116.116,0,0,0,.036-.056c-.021-.01-.07.057-.068.01a.532.532,0,0,1,.081-.058c-.034,0-.083.015-.119.012.024-.036.056-.036.082-.049a.153.153,0,0,0-.137.013l0,.032c-.01-.006.036-.045.051-.048.055-.019.011.043,0,.062l-.026,0c-.082.116.075.04.1.07l-.062.051a2.142,2.142,0,0,1-.228-.222l0,0c.032-.025.063-.049.092-.074C2279.414,45.3,2279.411,45.311,2279.418,45.313Zm1.084.811a.074.074,0,0,1,.035-.045c0,.015-.006.035-.01.054Zm-.911-.5-.027-.027.064-.027A.225.225,0,0,1,2279.591,45.627Zm.158.116a.141.141,0,0,1,.046-.031l-.021.048Zm3.2.381.037-.042h0Zm.138-.15c-.038.007-.063,0-.038-.027.008.014.074-.04.119-.06C2283.146,45.91,2283.118,45.941,2283.089,45.974Zm3.252,1.452a.1.1,0,0,1-.015-.057l.161-.027C2286.479,47.368,2286.442,47.4,2286.341,47.426Zm3.862-2.685c.019-.063.033-.126.049-.19a.345.345,0,0,1,.025.143C2290.254,44.711,2290.228,44.726,2290.2,44.741Zm.106-1.319c-.011-.079-.025-.156-.043-.233a1.255,1.255,0,0,1,.1.181C2290.358,43.406,2290.333,43.431,2290.309,43.422Z"/>
      <path id="路径_57" data-name="路径 57" class="cls-1" d="M2278.6,42.2a1.07,1.07,0,0,0,.088-.074C2278.658,42.151,2278.627,42.177,2278.6,42.2Z"/>
      <path id="路径_58" data-name="路径 58" class="cls-1" d="M2280.213,41.919l0,.018a.319.319,0,0,1,.053-.005A.447.447,0,0,0,2280.213,41.919Z"/>
      <path id="路径_59" data-name="路径 59" class="cls-1" d="M2287.6,47.225a.066.066,0,0,0,.04.005A.122.122,0,0,0,2287.6,47.225Z"/>
      <path id="路径_60" data-name="路径 60" class="cls-1" d="M2288.724,46.758a1.539,1.539,0,0,0,.161-.07Z"/>
      <path id="路径_61" data-name="路径 61" class="cls-1" d="M2289.5,46.214a.067.067,0,0,0-.007-.035h0Z"/>
      <path id="路径_62" data-name="路径 62" class="cls-1" d="M2275.494,49.262h-.037C2275.37,49.269,2275.429,49.271,2275.494,49.262Z"/>
      <path id="路径_63" data-name="路径 63" class="cls-1" d="M2279.729,48.186a1.1,1.1,0,0,1-.114.089C2279.689,48.249,2279.743,48.223,2279.729,48.186Z"/>
      <path id="路径_64" data-name="路径 64" class="cls-1" d="M2271.344,46.671h0l-.01-.031Z"/>
      <path id="路径_65" data-name="路径 65" class="cls-1" d="M2279.615,48.275a.925.925,0,0,0-.187.079A.6.6,0,0,0,2279.615,48.275Z"/>
      <path id="路径_66" data-name="路径 66" class="cls-1" d="M2290.14,42.306s-.008,0-.012,0l.036.04Z"/>
      <path id="路径_67" data-name="路径 67" class="cls-1" d="M2290.128,42.307l-.037-.04C2290.1,42.287,2290.117,42.3,2290.128,42.307Z"/>
      <path id="路径_68" data-name="路径 68" class="cls-1" d="M2290.016,42.184l.075.083C2290.07,42.234,2290.046,42.193,2290.016,42.184Z"/>
      <path id="路径_69" data-name="路径 69" class="cls-1" d="M2290.563,43.612l-.02-.011c.038.061-.046.289-.016.377A1.115,1.115,0,0,0,2290.563,43.612Z"/>
      <path id="路径_70" data-name="路径 70" class="cls-1" d="M2281.493,47.769l.066-.051-.187,0Z"/>
    </g>
    <g id="组_8" data-name="组 8">
      <path id="路径_71" data-name="路径 71" class="cls-1" d="M2299.319,37.252c.169-.338.3-.6.654-.6a.571.571,0,0,1,.553.564c0,.181-.034.294-.711,1.106-.745.891-1.647,1.85-1.974,2.166,1.929-.113,3.711-.294,5.641-.519a15.846,15.846,0,0,0-1.377-1.512c-.113-.113-.158-.169-.158-.248a.216.216,0,0,1,.2-.2c.226,0,3.328,2.493,3.328,3.2a.53.53,0,0,1-.53.53c-.293,0-.429-.2-.542-.406a7.406,7.406,0,0,0-.642-.993c-1.9.305-7.931,1.05-8.011,1.05a.388.388,0,0,1-.405-.4.393.393,0,0,1,.248-.373c.056-.022.9-.056,1.365-.078A14.645,14.645,0,0,0,2299.319,37.252Zm4.693,8.326c0,.835-.271,1.061-1.219,1.061h-4.727c-.992,0-1.207-.272-1.207-1.061V43.254c0-.835.271-1.06,1.207-1.06h4.727c1,0,1.219.282,1.219,1.06Zm-.948-2.256c0-.6-.1-.723-.722-.723h-3.813c-.609,0-.722.113-.722.723V45.51c0,.6.1.722.722.722h3.813c.609,0,.722-.113.722-.722Z"/>
      <path id="路径_72" data-name="路径 72" class="cls-1" d="M2307.951,45.352a18.825,18.825,0,0,0,1.253-2.989c.022-.068.067-.226.225-.226a.209.209,0,0,1,.2.2,31.033,31.033,0,0,1-.88,3.407c-.124.395-.236.779-.631.779a.468.468,0,0,1-.474-.5A4.02,4.02,0,0,1,2307.951,45.352Zm.9-4.241c-.136,0-.192-.046-.451-.339-.091-.1-.531-.507-.621-.6a.284.284,0,0,1-.068-.158.216.216,0,0,1,.226-.2,3.957,3.957,0,0,1,.891.383c.327.181.452.282.452.542A.431.431,0,0,1,2308.854,41.111Zm-.8-4.366c.068,0,.1,0,1,.586.2.124.35.215.35.44a.434.434,0,0,1-.429.418c-.192,0-.226-.046-.462-.373-.193-.248-.4-.485-.61-.722a.2.2,0,0,1-.056-.135A.211.211,0,0,1,2308.053,36.745Zm3.26,4.884c0,.147-.034.44-.349.44s-.35-.3-.35-.44V40.084a9.321,9.321,0,0,1-.948.124.355.355,0,0,1-.372-.338c0-.328.237-.328.88-.339.327-.361.462-.519.643-.756-.135.012-.192-.023-.609-.417-.057-.057-.35-.282-.406-.339a.188.188,0,0,1-.057-.135.2.2,0,0,1,.192-.2.519.519,0,0,1,.225.079c.531-.971.6-1.083.813-1.083a.409.409,0,0,1,.4.406c0,.181-.023.237-.813.88.44.26.485.282.519.451.5-.722.508-.745.711-.745a.41.41,0,0,1,.406.4c0,.169-.067.249-.711.869a7.738,7.738,0,0,1-.688.6c.147,0,.835-.023.982-.034a1.674,1.674,0,0,1-.136-.293.221.221,0,0,1,.215-.2c.158,0,.835.62.835.891a.356.356,0,0,1-.361.361c-.249,0-.316-.158-.407-.395-.259.045-.3.057-.609.113Zm-1.873-.011a6.009,6.009,0,0,1,.192-.632c.1-.327.158-.53.429-.53a.358.358,0,0,1,.35.339c0,.18-.519,1.015-.779,1.015A.2.2,0,0,1,2309.44,41.618Zm1.467,3.407c-.316,0-.6-.124-.6-.428,0-.046.192-.667.226-.768a.5.5,0,0,1,.575-.35h5.246c.226,0,.26-.056.26-.259v-.226c0-.214-.046-.248-.26-.248h-5.674c-.091,0-.249-.022-.249-.2s.169-.2.249-.2h5.934c.406,0,.834,0,.834.564,0,.813,0,.982-.834.982h-5.055a.149.149,0,0,0-.169.1c-.022.068-.146.451-.146.485,0,.136.135.147.2.147h5.595c.384,0,.632.2.632.463a3.43,3.43,0,0,1-.485,1.049,1.465,1.465,0,0,1-1.354.71h-1.669c-.08,0-.249-.022-.249-.2s.181-.2.249-.2h1.387c.485,0,.632-.09.914-.541a2.319,2.319,0,0,0,.3-.7c0-.124-.1-.169-.2-.169Zm.8-4.5c.113,0,.733.474.733.733a.363.363,0,0,1-.361.361c-.225,0-.282-.147-.372-.4a3.054,3.054,0,0,1-.2-.5A.2.2,0,0,1,2311.708,40.524Zm2.854-2.73c.079,0,.248.022.248.2s-.169.2-.248.2h-1.76c-.079,0-.248-.023-.248-.2s.169-.2.248-.2Zm.192,3.768a.43.43,0,0,1-.5.429h-1.072c-.26,0-.5-.1-.5-.429V41c0-.418.383-.418.5-.418h1.072c.282,0,.5.1.5.418Zm-.44-4.75c.09,0,.248.023.248.2s-.169.2-.248.2h-1.286c-.09,0-.248-.022-.248-.2s.169-.2.248-.2Zm.136,1.918c.09,0,.248.022.248.2s-.17.2-.248.2h-1.422c-.09,0-.248-.023-.248-.2s.169-.2.248-.2Zm0,.97c.09,0,.248.023.248.2s-.17.2-.248.2h-1.422c-.09,0-.248-.022-.248-.2s.169-.2.248-.2Zm-.316,1.433a.14.14,0,0,0-.158-.147h-.508a.132.132,0,0,0-.147.147v.293c0,.1.045.147.147.147h.508c.09,0,.158-.034.158-.147Zm2.56.53c0,.124-.033.406-.327.406s-.338-.282-.338-.406V40.005c-.327.056-.948.169-.993.169a.314.314,0,0,1-.316-.3c0-.294.2-.305.722-.328.158-.191.192-.248.553-.733-.1-.011-.135-.034-.4-.282-.068-.068-.428-.373-.5-.44a.218.218,0,0,1-.057-.136.2.2,0,0,1,.192-.2.584.584,0,0,1,.248.09c.091-.192.294-.632.339-.778.079-.238.192-.351.4-.351a.388.388,0,0,1,.383.384c0,.18-.079.26-.8.9.44.248.451.27.508.361.158-.237.169-.26.327-.53a.43.43,0,0,1,.4-.238.444.444,0,0,1,.429.429.423.423,0,0,1-.147.327c-.248.26-.621.644-1.128,1.162.158-.011.823-.045.97-.056a1.679,1.679,0,0,1-.079-.282.211.211,0,0,1,.214-.192c.2,0,.711.745.711.937a.375.375,0,0,1-.372.372c-.26,0-.305-.192-.4-.519-.338.079-.4.09-.542.124Zm-1.793-.023a5.429,5.429,0,0,1,.135-.608c.056-.294.09-.519.384-.519a.383.383,0,0,1,.372.372c0,.157-.451.959-.7.959A.206.206,0,0,1,2314.9,41.64Zm2.279-1.1c.1,0,.124.034.349.248.26.249.542.531.542.722a.444.444,0,0,1-.429.429c-.293,0-.35-.192-.44-.519a6.069,6.069,0,0,1-.226-.688A.209.209,0,0,1,2317.18,40.535Z"/>
      <path id="路径_73" data-name="路径 73" class="cls-1" d="M2330.156,38.335c.09,0,.248.023.248.2s-.169.2-.248.2h-5.54a10.547,10.547,0,0,1-.812,1.455h3.644c1.162,0,1.331.238,1.331,1.151v4.5c0,.868-.462.981-1.207.981h-1.026c-.124,0-.3,0-.3-.2s.181-.2.3-.2h.609c.62,0,.722-.124.722-.722v-1.23h-4.186v1.873c0,.169-.033.564-.451.564-.462,0-.462-.474-.462-.564V41.528a8.679,8.679,0,0,1-2.46,1.963.19.19,0,0,1-.2-.2c0-.091.057-.158.158-.226a9.341,9.341,0,0,0,3.43-4.321h-3.317c-.09,0-.26-.023-.26-.2s.181-.2.26-.2h3.452c.1-.35.2-.846.282-1.252a.488.488,0,0,1,.508-.463.508.508,0,0,1,.53.5,4.669,4.669,0,0,1-.361,1.218Zm-2.279,3.791v-.8c0-.608-.124-.721-.722-.721h-2.742c-.62,0-.722.124-.722.721v.8Zm-4.186.406v1.534h4.186V42.532Z"/>
      <path id="路径_74" data-name="路径 74" class="cls-1" d="M2332.414,46.469c0-.192.079-.271.316-.587a7.791,7.791,0,0,0,.722-1.218.237.237,0,0,1,.215-.169.208.208,0,0,1,.2.225,9.353,9.353,0,0,1-.474,1.715c-.09.226-.214.463-.542.463A.424.424,0,0,1,2332.414,46.469Zm3.374-4.76h1.556c.079,0,.249.022.249.2s-.17.2-.249.2h-1.556v1.23h1.917c.079,0,.249.022.249.2s-.17.2-.249.2h-4.772c-.079,0-.248-.022-.248-.2s.169-.2.248-.2h2.087v-1.23h-1.726c-.079,0-.248-.022-.248-.2s.169-.2.248-.2h1.726v-.993h-1.128c-.947,0-1.06-.339-1.06-.926V38.064c0-.665.192-.925,1.06-.925h3.046c.937,0,1.061.339,1.061.925V39.79c0,.666-.192.926-1.061.926h-1.15Zm-.768-4.163h-.756c-.575,0-.631.146-.631.643v1.478c0,.529.09.642.631.642h.756Zm-1.026,1.6c-.034-.135-.248-.767-.248-.846a.193.193,0,0,1,.191-.2c.113,0,.17.056.35.271.215.259.643.767.643,1.038a.421.421,0,0,1-.428.429C2334.208,39.836,2334.129,39.734,2333.994,39.147Zm.462,7.074c0-.169.034-.857.023-1.016s-.023-.372-.023-.451a.233.233,0,0,1,.226-.248c.113,0,.158.1.192.169a6.184,6.184,0,0,1,.44,1.636.407.407,0,0,1-.406.44C2334.569,46.751,2334.456,46.559,2334.456,46.221Zm1.5-.621a8.048,8.048,0,0,0-.2-.868.917.917,0,0,1-.045-.192.184.184,0,0,1,.191-.192c.124,0,.158.079.576.722a2.493,2.493,0,0,1,.406.925.412.412,0,0,1-.372.429C2336.137,46.424,2336.092,46.3,2335.957,45.6Zm-.169-5.291h.767c.541,0,.631-.113.631-.642V38.189c0-.5-.056-.643-.631-.643h-.767Zm1.331-1.974a3.922,3.922,0,0,1-.655,1.252c-.158.215-.225.316-.349.316a.212.212,0,0,1-.2-.214c0-.068.135-.53.18-.745.034-.124.1-.631.147-.767a.452.452,0,0,1,.429-.293A.445.445,0,0,1,2337.119,38.335Zm0,5.788a3.145,3.145,0,0,1,1.071,1.568.4.4,0,0,1-.417.394c-.3,0-.35-.157-.44-.552a4.907,4.907,0,0,0-.327-.993.7.7,0,0,1-.09-.215A.2.2,0,0,1,2337.119,44.123Zm3.633-4.874h1.85c.078,0,.248.023.248.2s-.158.2-.248.2h-1.85v2.369h.812c.868,0,1.06.26,1.06.925V45.7c0,.587-.124.925-1.06.925H2339.4c-.869,0-1.061-.26-1.061-.925V42.949c0-.6.113-.925,1.061-.925h.507V37.241c0-.09,0-.519.429-.519.372,0,.418.349.418.519Zm1.015,3.824c0-.5-.068-.643-.643-.643h-1.3c-.541,0-.631.113-.631.643v2.5c0,.5.056.643.631.643h1.3c.541,0,.643-.113.643-.643Z"/>
      <path id="路径_75" data-name="路径 75" class="cls-1" d="M2345.2,39.847a8.212,8.212,0,0,1,1.129.349c.293.113.575.215.575.542a.448.448,0,0,1-.462.451c-.181,0-.249-.056-.486-.282a5.26,5.26,0,0,0-.835-.642c-.112-.08-.146-.125-.146-.215A.231.231,0,0,1,2345.2,39.847Zm2.415,2.583a22.154,22.154,0,0,1-1.05,2.821c-.5,1.128-.609,1.3-.947,1.3a.507.507,0,0,1-.508-.463c0-.18.09-.315.339-.676a20.978,20.978,0,0,0,1.726-2.956c.056-.124.1-.226.236-.226A.2.2,0,0,1,2347.613,42.43Zm-1.76-5.291a6.679,6.679,0,0,1,1.207.373c.462.18.688.27.688.6a.453.453,0,0,1-.451.451c-.158,0-.192-.034-.553-.338-.271-.215-.643-.463-.97-.689-.079-.056-.124-.1-.124-.191A.21.21,0,0,1,2345.853,37.139Zm2.188,8.924V43.457c0-.586.113-.925,1.061-.925h4.388c.869,0,1.061.271,1.061.925v2.606h.462c.079,0,.249.022.249.2s-.158.2-.249.2H2347.5c-.068,0-.248-.011-.248-.2s.169-.2.248-.2Zm6.092-5.37c0,.666-.18.925-1.049.925H2349.6c-.947,0-1.06-.338-1.06-.925v-2.5c0-.655.191-.925,1.06-.925h3.486c.937,0,1.049.338,1.049.925Zm-4.2,5.37V42.938h-.407c-.541,0-.631.124-.631.654v2.471Zm3.339-7.75c0-.5-.068-.644-.643-.644h-2.583c-.553,0-.644.113-.644.644v2.256c0,.5.057.643.644.643h2.583c.553,0,.643-.113.643-.643Zm-.519,2.154a.3.3,0,0,1,.124.215.2.2,0,0,1-.192.2,7.169,7.169,0,0,1-1.455-1.072c-.18.2-.936,1.038-1.128,1.038a.208.208,0,0,1-.2-.192.312.312,0,0,1,.09-.2,6.432,6.432,0,0,0,1.207-2.02.472.472,0,0,1,.925.147c0,.181-.034.226-.372.632A6.263,6.263,0,0,0,2352.757,40.467Zm-.981,5.6V42.938h-1.084v3.125Zm1.918,0V43.592c0-.53-.091-.654-.644-.654h-.473v3.125Z"/>
      <path id="路径_76" data-name="路径 76" class="cls-1" d="M2360.611,44.991c0,.643-.169.925-1.06.925h-.756c-.925,0-1.06-.316-1.06-.925v-6.96c0-.644.169-.926,1.06-.926h.756c.925,0,1.06.316,1.06.926Zm-.789-3.723V38.076c0-.451-.068-.564-.565-.564h-.18c-.474,0-.553.09-.553.564v3.192Zm-1.3.407v3.271c0,.474.079.564.553.564h.18c.5,0,.565-.113.565-.564V41.675Zm4.592,1.76a4.857,4.857,0,0,1-2.426,3.384.2.2,0,0,1-.2-.2.252.252,0,0,1,.136-.215,5.6,5.6,0,0,0,1.906-4.4h-1.342c-.079,0-.248-.022-.248-.2s.169-.2.248-.2h1.365c.033-.711.033-1.072.033-1.287h-1.162c-.078,0-.247-.022-.247-.191a.221.221,0,0,1,.247-.215h5.45c.079,0,.248.034.248.2,0,.192-.169.2-.248.2h-3.486c0,.44,0,.869-.034,1.287h4.016c.09,0,.248.022.248.2s-.169.2-.248.2h-4.039c-.045.554-.09.8-.124,1.027h2.82c.4,0,.689.169.689.474a4.737,4.737,0,0,1-1.467,1.975,6.1,6.1,0,0,0,2.155,1.015c.079.022.214.067.214.225a.2.2,0,0,1-.192.2,4.525,4.525,0,0,1-.767-.192,7.106,7.106,0,0,1-1.906-.869,6.728,6.728,0,0,1-2.426,1.027,1.942,1.942,0,0,1-.2.034.21.21,0,0,1-.2-.2c0-.124.09-.18.192-.2a5.253,5.253,0,0,0,2.132-1c-.462-.361-1.06-.869-1.06-1.185a.436.436,0,0,1,.44-.451c.248,0,.349.169.44.316a3.948,3.948,0,0,0,.676.858,3.407,3.407,0,0,0,.926-1.444c0-.169-.17-.169-.215-.169Zm3.621-6.386c0,.361-.3.429-.507.463a24.068,24.068,0,0,1-4.175.3c-.767,0-.846,0-.846-.214s.214-.215.316-.215a12.545,12.545,0,0,0,4.005-.5,5.9,5.9,0,0,1,.767-.293A.443.443,0,0,1,2366.737,37.049Zm-3.96,2.234a.445.445,0,0,1-.439.428c-.26,0-.283-.09-.5-.6a4.922,4.922,0,0,1-.327-.71.209.209,0,0,1,.2-.2C2361.807,38.2,2362.777,38.922,2362.777,39.283Zm1.817-.1a.412.412,0,0,1-.406.406c-.26,0-.3-.124-.452-.564a4.61,4.61,0,0,0-.248-.575.309.309,0,0,1-.045-.158.2.2,0,0,1,.2-.2C2363.793,38.087,2364.594,38.877,2364.594,39.181Zm2.211-.891c0,.418-1.083,1.444-1.264,1.444a.21.21,0,0,1-.2-.2c0-.056.012-.079.1-.226a4.448,4.448,0,0,0,.5-1.139.443.443,0,0,1,.429-.305A.454.454,0,0,1,2366.8,38.29Z"/>
      <path id="路径_77" data-name="路径 77" class="cls-1" d="M2374.129,38c-.7.056-2.527.157-3.215.157-.124,0-.249-.044-.249-.2,0-.2.192-.2.3-.2a22.385,22.385,0,0,0,6.25-.9,5.6,5.6,0,0,1,.621-.214.436.436,0,0,1,.417.439c0,.418-.169.542-3.215.847v2.188l4.23-.361c.136-.011.26.034.26.192,0,.135-.113.181-.226.192l-4.264.384v2.245l4.761-.373c.124-.011.27.034.27.2a.223.223,0,0,1-.237.215l-4.794.36v2.392c0,.6.113.722.733.722h2.426c.507,0,.8-.124,1.015-.891.079-.3.158-.576.508-.576a.461.461,0,0,1,.451.452,1.819,1.819,0,0,1-.44.992,1.4,1.4,0,0,1-1.207.429h-3.182c-.947,0-1.218-.225-1.218-1.06V43.231l-4.129.316c-.1.011-.248-.011-.248-.191a.2.2,0,0,1,.225-.193l4.152-.338V40.591l-3.475.305c-.135.011-.27-.034-.27-.2s.158-.2.236-.215l3.509-.293Z"/>
      <path id="路径_78" data-name="路径 78" class="cls-1" d="M2384.6,45.871c0,.643-.17.925-1.061.925h-.835c-.09,0-.248-.022-.248-.2s.169-.2.248-.2h.429c.564,0,.632-.146.632-.643V42.486a7.775,7.775,0,0,1-1.083.294.387.387,0,0,1-.406-.4.421.421,0,0,1,.259-.384c.045-.01,1.038-.191,1.23-.236V39.633a.429.429,0,0,1,.417-.486.489.489,0,0,1,.135.023,6.041,6.041,0,0,0,.745-1.523c0-.124-.1-.181-.225-.181h-2.257c-.079,0-.248-.022-.248-.2s.169-.2.248-.2h2.821c.394,0,.665.191.665.507,0,.181-.056.248-.316.553-.79.913-.88,1.015-1.173,1.32a.43.43,0,0,1,.023.192v1.951c.214-.045,1.342-.327,1.353-.327a.2.2,0,0,1,.046.4c-.068.034-.508.226-1.4.542Zm1.647-7.141c-.09,0-.248-.022-.248-.192a.216.216,0,0,1,.248-.214h2.459V37.2c0-.169.045-.508.406-.508a.424.424,0,0,1,.418.417v1.219h2.662c.079,0,.248.034.248.2,0,.191-.18.2-.248.2h-3a.454.454,0,0,1,.294.429,4.494,4.494,0,0,1-1.467,1.952,5.684,5.684,0,0,1,.936.857.472.472,0,0,1,.057.192,12.827,12.827,0,0,0,1.466-1.817.49.49,0,0,1,.429-.259.452.452,0,0,1,.451.451c0,.305-.767,1.061-1.15,1.422a15.209,15.209,0,0,1-4.163,2.843.21.21,0,0,1-.2-.2c0-.125.1-.181.2-.238a10.326,10.326,0,0,0,2.561-1.816.4.4,0,0,1-.35-.214,9.486,9.486,0,0,0-1.512-1.58.191.191,0,0,1-.079-.158.2.2,0,0,1,.2-.2,4.127,4.127,0,0,1,.835.485,6.324,6.324,0,0,0,.88-1.76c.068-.18.113-.3.316-.383Zm5.99,7.085a.538.538,0,0,1,.237.417.465.465,0,0,1-.463.463.52.52,0,0,1-.462-.316,6.031,6.031,0,0,0-1.579-1.681,13.014,13.014,0,0,1-3.035,1.771,4.976,4.976,0,0,1-.869.3.189.189,0,0,1-.192-.192.222.222,0,0,1,.181-.215,11.768,11.768,0,0,0,5.009-3.869.5.5,0,0,1,.417-.248.455.455,0,0,1,.452.462.441.441,0,0,1-.158.339,15.207,15.207,0,0,1-1.512,1.421A8.956,8.956,0,0,1,2392.238,45.815Z"/>
      <path id="路径_79" data-name="路径 79" class="cls-1" d="M2395.907,37.151c0-.17.045-.519.429-.519s.428.36.428.519v2.154h1.084c.078,0,.248.023.248.2s-.17.2-.248.2h-1.084v6.668c0,.158-.045.519-.428.519s-.429-.372-.429-.519V39.711h-1.049c-.079,0-.248-.022-.248-.2s.169-.2.248-.2h1.049Zm1.681,5.979c-.09,0-.248-.023-.248-.2s.169-.2.248-.2h1.207c.011-.1.011-.542.022-.632a.476.476,0,0,1,.948.079,4.453,4.453,0,0,1-.067.553h.631c.4,0,.689.135.689.541a13.113,13.113,0,0,1-.339,2.494c-.225.823-.53,1.015-1.275,1.015h-.507c-.068,0-.26,0-.26-.192s.09-.192.587-.215c.372-.011.553-.123.7-.812a17.171,17.171,0,0,0,.226-2.233c0-.192-.135-.192-.226-.192h-.293a5.276,5.276,0,0,1-2.189,3.61.2.2,0,0,1-.2-.2c0-.079.012-.1.158-.26a5.084,5.084,0,0,0,1.365-3.147Zm1.072-4.716c-.09,0-.248-.022-.248-.191a.217.217,0,0,1,.248-.215h2.087c.022-.136.067-.79.079-.925a.478.478,0,0,1,.485-.451.511.511,0,0,1,.508.541,5.15,5.15,0,0,1-.113.835h1.636c.248,0,.789.011.789.62a8.462,8.462,0,0,1-.383,1.817,1,1,0,0,1-.937.609h-1.252c-.09,0-.259-.022-.259-.2s.18-.2.259-.2h.542a.8.8,0,0,0,.913-.643,8.763,8.763,0,0,0,.249-1.377c0-.2-.17-.214-.249-.214h-1.41a4.1,4.1,0,0,1-2.335,2.7,3.69,3.69,0,0,1-.812.293.2.2,0,0,1-.2-.2c0-.136.1-.169.236-.226a3.565,3.565,0,0,0,2.178-2.561Zm3.012,4.716c-.09,0-.26-.023-.26-.2s.181-.2.26-.2h.677a6.253,6.253,0,0,1,.011-.8.475.475,0,0,1,.474-.406.465.465,0,0,1,.474.519,5.5,5.5,0,0,1-.068.689h.778c.282,0,.722,0,.722.586a18.89,18.89,0,0,1-.282,2.606c-.169.8-.564.869-1.24.869h-.531c-.079,0-.248-.023-.248-.2s.169-.2.248-.2h.237c.406,0,.609-.034.711-.417a16.786,16.786,0,0,0,.282-2.64.18.18,0,0,0-.2-.192h-.519a5.531,5.531,0,0,1-1.32,3.034c-.147.159-.5.519-.643.519a.2.2,0,0,1-.2-.2,3.979,3.979,0,0,1,.44-.631,5.4,5.4,0,0,0,.846-2.719Z"/>
      <path id="路径_80" data-name="路径 80" class="cls-1" d="M2412.866,36.959a8.543,8.543,0,0,0,4.061,2.279.206.206,0,0,1,.192.2.2.2,0,0,1-.192.2,11.906,11.906,0,0,1-4.479-1.963.621.621,0,0,0-.2-.125c-.056,0-.09.034-.214.125a13.471,13.471,0,0,1-4.6,1.917.192.192,0,0,1-.192-.2.2.2,0,0,1,.169-.2c2.809-.813,3.667-1.715,4.321-2.414.124-.125.2-.159.5-.159C2412.55,36.62,2412.584,36.654,2412.866,36.959Zm3.61,5.11c0,.643-.17.925-1.061.925h-6.487c-.925,0-1.06-.316-1.06-.925v-.8c0-.643.169-.936,1.06-.936h6.487c.925,0,1.061.327,1.061.936Zm-4.739-1.331h-2.38c-.575,0-.643.147-.643.655v.552c0,.531.1.643.643.643h2.38Zm3.836,5c0,.643-.169.936-1.06.936h-4.728c-.924,0-1.06-.327-1.06-.936V44.495c0-.643.169-.925,1.06-.925h4.728c.925,0,1.06.316,1.06.925Zm-.993-6.521c.079,0,.248.023.248.2s-.169.2-.248.2h-4.862c-.09,0-.248-.023-.248-.2s.169-.2.248-.2Zm.136,5.686v-.282c0-.508-.068-.643-.643-.643h-3.847c-.553,0-.643.113-.643.643V44.9Zm-5.133.406v.305c0,.53.09.654.643.654h3.847c.575,0,.643-.147.643-.654v-.305Zm.248-4.535c.18,0,1.286.97,1.286,1.354a.439.439,0,0,1-.44.429c-.282,0-.339-.113-.575-.644a7.792,7.792,0,0,0-.452-.834.158.158,0,0,1-.022-.1A.2.2,0,0,1,2409.831,40.772Zm2.707,1.816h2.4c.553,0,.643-.112.643-.643v-.552c0-.508-.067-.655-.643-.655h-2.4Zm.745-.225a6.014,6.014,0,0,1,.338-.644c.1-.248.26-.62.316-.733a.421.421,0,0,1,.384-.214.445.445,0,0,1,.451.451c0,.44-1.162,1.332-1.263,1.332A.2.2,0,0,1,2413.283,42.363Z"/>
    </g>
  </g>
</svg>
