<svg xmlns="http://www.w3.org/2000/svg" width="23.442" height="23.439" viewBox="0 0 23.442 23.439">
  <defs>
    <style>
      .cls-1 {
        fill: #fff;
      }
    </style>
  </defs>
  <g id="ico-fb" transform="translate(-2318.252 -1108.908)">
    <path id="路径_164" data-name="路径 164" class="cls-1" d="M2341.694,1114.858v11.535c-.014.074-.027.148-.042.222a11.054,11.054,0,0,1-.269,1.248,6.394,6.394,0,0,1-6.144,4.477c-3.508.013-7.016,0-10.524,0a6.1,6.1,0,0,1-3.129-.806,6.3,6.3,0,0,1-3.321-5.719c-.022-3.462-.01-6.924,0-10.387a6.167,6.167,0,0,1,.119-1.294,6.323,6.323,0,0,1,4.774-5.034c.342-.1.7-.131,1.052-.194h11.535c.239.039.481.064.717.117a6.348,6.348,0,0,1,5.04,4.782C2341.6,1114.149,2341.631,1114.508,2341.694,1114.858Zm-1.381,5.791c0-1.724.007-3.448,0-5.171a5.723,5.723,0,0,0-.121-1.2,5.016,5.016,0,0,0-5-3.984q-5.219-.014-10.435,0a4.791,4.791,0,0,0-2.129.449,4.954,4.954,0,0,0-2.979,4.725c-.021,3.44-.01,6.88,0,10.32a5.49,5.49,0,0,0,.118,1.18,5.012,5.012,0,0,0,4.99,3.994q5.229.018,10.457,0a4.947,4.947,0,0,0,4.168-2.133,5.01,5.01,0,0,0,.935-3.028Q2340.314,1123.223,2340.313,1120.649Z"/>
    <g id="组_15" data-name="组 15">
      <path id="路径_165" data-name="路径 165" class="cls-1" d="M2336.9,1117.4a3,3,0,0,0-1.279-.268q-2.028,0-2.028,2.2v1.606h2.808v1.329h-2.808v8.88H2331.8v-8.88h-2.05v-1.329h2.05v-1.68a3.135,3.135,0,0,1,1.079-2.529,3.962,3.962,0,0,1,2.651-.914,4.193,4.193,0,0,1,1.366.176Z"/>
    </g>
  </g>
</svg>
