<svg xmlns="http://www.w3.org/2000/svg" width="91.745" height="17.364" viewBox="0 0 91.745 17.364">
  <defs>
    <style>
      .cls-1 {
        fill: #fff;
      }
    </style>
  </defs>
  <g id="img-logo" transform="translate(-2284.101 -1080.643)">
    <g id="组_17" data-name="组 17">
      <path id="路径_171" data-name="路径 171" class="cls-1" d="M2286.182,1082.394l-.054-.054C2286.109,1082.383,2286.151,1082.378,2286.182,1082.394Z"/>
      <path id="路径_172" data-name="路径 172" class="cls-1" d="M2289.381,1084.551h0C2289.391,1084.56,2289.389,1084.558,2289.381,1084.551Z"/>
      <path id="路径_173" data-name="路径 173" class="cls-1" d="M2287.421,1081.469l.007,0C2287.437,1081.439,2287.43,1081.447,2287.421,1081.469Z"/>
      <path id="路径_174" data-name="路径 174" class="cls-1" d="M2287.978,1085.138l0,0,0,0Z"/>
      <path id="路径_175" data-name="路径 175" class="cls-1" d="M2287.892,1085.177c.05-.08.065-.067.087-.045l.009-.2Z"/>
      <path id="路径_176" data-name="路径 176" class="cls-1" d="M2286.11,1083.176l-.044.04c0-.011-.011-.013-.01-.024-.1.083.161.05.135.143-.012.034-.039.061-.069.042l.066.065c0,.022-.039.024-.038,0l.037.108h-.006c.035.009.1.029.123.039-.022.033-.026-.007-.05.007l.068.041a.074.074,0,0,1-.12-.035c-.193.114.068.032-.017.188l-.044-.047c-.105.075-.052.109-.1.2.026-.033.137-.2.209-.153-.01.023-.009.05.047.065-.072.03-.04.056-.017.094l-.095.04c.048.033.094.006.147.011.013.052-.053.1-.1.144.032.084.082-.113.152-.035,0,.079.065.1.161.135,0,.059-.057.03-.07.061l.093-.015c0,.01-.017.022-.029.029.048.008.085-.06.14-.035.1-.064-.058.2.09.158-.01.033-.052.038-.077.07a.476.476,0,0,0,.233-.016l0,.091c.014-.088.121-.12.2-.151l0-.016.013.01-.018.006-.006.022.031-.023.026.021a.283.283,0,0,1-.075.07l.018-.068a.6.6,0,0,0-.147.13.066.066,0,0,1,.039-.005.091.091,0,0,0-.032.03c0,.01.017,0,.044-.015l-.056.1.032-.033a.859.859,0,0,0,.05.124c.136-.053.274-.158.4-.155a.678.678,0,0,0-.115.209c.019-.109-.108,0-.153-.059.023.028-.007.065-.023.075a.974.974,0,0,0,.149-.027c-.04.072-.006.066.007.11.052-.156.124-.057.186-.086-.019.051-.052.1-.1.062.009.141.149-.143.165-.026-.014,0-.017-.013-.033.01.048-.033.106.029.074.068l-.013,0c.078.056.273.078.311-.051a1.742,1.742,0,0,1-.058.185,3.351,3.351,0,0,0,.161-.294l.053.008c-.012.126-.023.275-.084.313a.066.066,0,0,0,.1.01c-.014-.019-.015-.175.006-.183.038.139.027.077.087.192-.02-.026.02-.209.052-.2a1.49,1.49,0,0,1-.023.2c.034-.058.066-.118.1-.177a.354.354,0,0,0,.011.207c-.009-.035.079.005.1-.016l-.039-.041c.1.023.088-.26.176-.254-.007.037-.008.232.046.25.009-.052.02-.179.036-.3l.1-.015a1.5,1.5,0,0,1-.078.328c.044.036.019.061.077.047.029.046-.021.08-.038.085l.147.009c-.027-.1.081-.132.053-.218a1.238,1.238,0,0,1-.12.141c-.022-.1.023-.314.107-.32.033.035.033.191.043.226,0-.04.068-.093.084-.07l-.023.067c.066.024.04-.159.132-.086.022,0,.113.106.093.045a1.656,1.656,0,0,1-.17-.345c.02-.008.04-.015.06-.024l.014.04.011-.005-.017-.038.043-.017.014-.008c.047.081.043.207.095.263a.191.191,0,0,1-.007-.083c.03.012.031.087.069.052-.042-.1.092-.038-.022-.094.026-.049.054,0,.1-.033a.422.422,0,0,1-.065-.2c.015-.009.029-.02.044-.03l.008.008c.076-.04.147-.025.211-.08.022.016.075.014.092.061,0-.023-.018-.058,0-.077.1.037-.036.049.07.11-.04-.051,0-.111-.007-.168-.075-.061-.074.044-.078.1a.5.5,0,0,1-.07-.124,2.037,2.037,0,0,0,.185-.187c.066-.026.128-.149.218-.189a.221.221,0,0,0-.038-.06,1.958,1.958,0,0,0,.15-.3.218.218,0,0,0,.033.016l-.02-.053,0,0c.017.008.036.029.055.022a.121.121,0,0,1-.049-.038c.007-.021.015-.041.022-.063l.006,0-.005,0a.632.632,0,0,0,.016-.062h.008a.014.014,0,0,1,0-.013,1.5,1.5,0,0,0-.3-1.368c-.022-.026-.047-.047-.07-.072a.761.761,0,0,1,.122-.171c-.131.064.03-.254-.171-.161,0-.038.044-.029.058-.064-.059.037-.089.032-.115-.022l.015-.01c-.131-.07-.151-.157-.294-.27l-.019.075c-.029-.024-.027-.049-.036-.073-.082.092.093.045.007.148.016-.165-.229-.09-.215-.264-.056-.015-.006.09-.061.076l0-.051-.027.057c-.033-.019-.04-.079-.034-.12.008.007.028-.007.039-.008-.04-.065-.145-.006-.158-.025l.052.038c-.16.018-.358-.048-.5.067l.015.035c-.1.078-.093-.03-.209.024l0-.009c-.02.039-.028.062-.054.064.011-.047-.048-.072-.03-.125-.056.083-.017.059-.063.194,0-.02,0-.04-.012-.061-.028.054-.031.082-.087.1.047-.05-.041-.093.014-.159-.143-.126-.179.147-.264-.038-.031.172.125.078.1.118.032.052-.031.126-.069.116s-.1-.194-.21-.166c.011,0,.008-.014.019-.016-.052-.033-.059.075-.126.026.007.1-.062.017-.024.139l.077-.059c-.041.051-.031.2-.132.168a.189.189,0,0,1,.013-.091c-.039-.027-.034.042-.073.018-.048-.123.092-.072.115-.181-.048-.041-.074.125-.1-.014.026.175-.109.024-.115.177l-.031-.07c0,.016-.009.058-.029.066l-.012-.1c-.014.1-.14-.008-.166.065.1-.069.071.063.142.084-.061.164-.179-.128-.3.005.011-.025.1-.015.088.034a.218.218,0,0,1-.125-.009c-.076.084.063.05.057.117-.088-.049-.016.063-.03.113l-.053-.057c-.121.049.09.139-.026.17l-.046-.107-.02.06-.056-.07c0,.092-.022.091-.079.125.051.024.1.1.074.138-.059,0-.046-.061-.083,0-.03-.042-.066-.095.011-.077-.017-.018-.027-.044-.044-.063-.068,0-.074.075-.091.1a.055.055,0,0,1,.034-.014,1.337,1.337,0,0,0,.026.153c-.034,0-.046-.025-.058-.05-.005.024.017.057,0,.088-.049-.04-.107-.072-.1-.131v.131c-.027-.007-.1.012-.108-.011-.063.042.042.194-.036.246a.071.071,0,0,1,.02.041c-.037.065-.138.109-.078.222l-.121.025c.009.077.154-.036.171.088.019.086-.1.012-.139.036.045.054.158.135.059.2-.02-.027,0-.046-.007-.07l-.068.054c-.1-.083-.056-.138-.15-.087C2286.1,1082.944,2285.883,1083.167,2286.11,1083.176Zm.146.617c-.02-.01-.078-.025-.038-.051C2286.308,1083.731,2286.272,1083.757,2286.256,1083.793Zm.845.793c.014,0,.024.016.027.041C2287.1,1084.643,2287.1,1084.621,2287.1,1084.586Z"/>
      <path id="路径_177" data-name="路径 177" class="cls-1" d="M2286.192,1082.4l0,0-.012-.008Z"/>
      <path id="路径_178" data-name="路径 178" class="cls-1" d="M2289.3,1084.952a.078.078,0,0,1-.043-.024A.034.034,0,0,0,2289.3,1084.952Z"/>
      <path id="路径_179" data-name="路径 179" class="cls-1" d="M2290.077,1083.778l-.021,0-.019.026Z"/>
      <path id="路径_180" data-name="路径 180" class="cls-1" d="M2289.9,1084.274a.156.156,0,0,1-.061-.022l.075.067Z"/>
      <path id="路径_181" data-name="路径 181" class="cls-1" d="M2289.813,1084.4c.016.023,0,.113.045.059C2289.843,1084.437,2289.863,1084.383,2289.813,1084.4Z"/>
      <path id="路径_182" data-name="路径 182" class="cls-1" d="M2288.489,1085.275c.074.036.009-.1.076-.056.012-.04-.054-.037-.04-.072C2288.487,1085.19,2288.464,1085.168,2288.489,1085.275Z"/>
      <path id="路径_183" data-name="路径 183" class="cls-1" d="M2286.135,1083.986c.022-.018.019-.029.013-.052l-.038.058Z"/>
      <path id="路径_184" data-name="路径 184" class="cls-1" d="M2286.011,1083.34l.093-.03-.092.018Z"/>
      <path id="路径_185" data-name="路径 185" class="cls-1" d="M2285.923,1082.746c-.008.023.007.054,0,.077C2285.915,1082.768,2286.041,1082.762,2285.923,1082.746Z"/>
      <path id="路径_186" data-name="路径 186" class="cls-1" d="M2305.122,1082.332c-.016,0-.007-.032-.041-.022-.021.044-.006.065.037.08-.007.012-.023.012-.032.015a.145.145,0,0,0,.123-.02c-.057,0-.04-.016-.1-.009C2305.092,1082.362,2305.1,1082.34,2305.122,1082.332Z"/>
      <path id="路径_187" data-name="路径 187" class="cls-1" d="M2305.282,1082.619a.038.038,0,0,0-.017-.016l.009.016Z"/>
      <path id="路径_188" data-name="路径 188" class="cls-1" d="M2304.144,1081.217a.13.13,0,0,1-.009.042C2304.148,1081.229,2304.2,1081.245,2304.144,1081.217Z"/>
      <path id="路径_189" data-name="路径 189" class="cls-1" d="M2305.277,1082.631l0-.012c-.007,0-.014,0-.017,0S2305.274,1082.626,2305.277,1082.631Z"/>
      <path id="路径_190" data-name="路径 190" class="cls-1" d="M2301.5,1084.094a.09.09,0,0,0-.009-.043l-.011.007Z"/>
      <path id="路径_191" data-name="路径 191" class="cls-1" d="M2303.454,1084.2Z"/>
      <path id="路径_192" data-name="路径 192" class="cls-1" d="M2300.547,1082.763l.027-.011c.033.018-.01.031-.013.05.021-.007.02-.03.038-.019.074.186.079.409.165.607.033.072.149-.042.142.074l-.059.007c.136.089.187.252.333.316-.015,0-.026.014-.036,0-.006.052.084.08.1.056.015.018-.015.025-.015.047.009.039.092.011.081.051,0,.007-.015.005-.021,0,.027,0,.072.062.083.014.032.05.1.043.118.089.05-.027.068.069.111.013-.041.062.055.1.1.083-.02.014.016.034-.009.055.035.018.075.019.084-.017.032.111.159-.009.156.109l.336.013c-.02.071-.112-.02-.127.055.1,0,.172-.054.263-.02.024.012-.019.029-.029.04.1-.016.189.032.279,0,0,.006-.01.013-.02.018.018,0,.04.013.039-.02l-.017.008c-.024-.05.071-.1.074-.122-.03.1.082.023.037.143a.047.047,0,0,0,.023-.044c.016.006.022.019.005.044.061-.019.038-.053.093-.054,0,.016-.01.023-.015.042.027-.033.052-.067.1-.056,0,.009,0,.021-.009.022.08-.009.124-.1.213-.078-.014.072.032.018.047.076l.043-.027-.024-.025c.041-.007.066-.057.1-.045l-.024.03.072-.028-.047-.012c.032-.04-.022-.073.033-.07-.009.009.038-.009.068.02.014-.024.027-.047.059-.042.013.016.013.066.022.076,0-.054.086-.041.092-.1a.082.082,0,0,0,.011.05l0-.044c.022.006.026.011.032.036.055-.012-.042-.066.031-.057,0,.005,0,.009-.008.019.069-.006.111-.068.174-.074.04.049-.044.035,0,.074.079-.043.138-.139.22-.162h-.017c-.027-.083.074.009.1-.046-.007.01.009.049.007.039.059-.014.1-.074.159-.139l0,.024c.039,0,.083-.035.12-.044,0-.025.018-.032-.009-.053.162.049.147-.169.286-.135-.01.007-.013.031-.005.027l.062-.067c-.027-.027-.023-.012-.054-.025a.073.073,0,0,1,.023-.065c-.016.042.036.048.064.053-.01-.007-.013-.02-.021-.029.078.021-.042-.062.033-.068l.011.016c.011-.022.007-.056.028-.07.038.023,0,.032.021.058.024-.029-.01-.1.041-.1,0,.019-.014.036-.016.054.063.009.055-.005.078-.02h0l.057-.035-.021,0c-.064-.1.039-.088.005-.178.032.085.03.028.07.057.02-.007.046-.022.054-.009-.019-.044.051-.032.018-.1.015.005.015-.028.049-.007,0-.042-.029,0-.046-.013-.028-.072.114-.114.059-.221-.016-.077-.066-.1-.09-.155v-.006c.026-.017.053.02.053.02a.078.078,0,0,0,0-.1c.015.006.026,0,.043-.015-.007-.029-.06-.012-.042-.051a.2.2,0,0,1,.067.019.867.867,0,0,0-.077-.091c.023-.016.047.01.066.019-.022-.038-.054-.1-.1-.091a.148.148,0,0,1-.007.028c-.006-.012.033-.02.044-.012.043.023,0,.052-.014.057l-.017-.02c-.08.047.037.086.039.139l-.057-.009a.656.656,0,0,0-.126-.315l0,0c.023-.014.046-.028.067-.043,0,.006-.007.014,0,.019l.051-.018-.029-.019,0,0a.111.111,0,0,0,.039-.093l-.067-.013.018-.036.028.033c.013-.04-.021-.034-.048-.035a.059.059,0,0,0,.018-.042l-.088.006c.019-.024.06-.019.051-.056-.041,0-.037.059-.079.043.011-.041.037-.053,0-.057a.037.037,0,0,1,.039-.015c-.034-.005-.051-.046-.09-.03.014-.047-.066-.058-.012-.1a.137.137,0,0,1-.09-.011c.092-.027-.058-.068.016-.123-.077.029-.108-.059-.179-.069.007,0,.02-.006.021,0-.019-.027-.011-.05-.016-.075-.046.044-.093.021-.139.033.011-.073.067-.04.1-.092-.033.039-.086-.008-.1.034,0-.048-.008-.031.014-.081-.055.057-.031-.008-.081.014-.009-.059.038-.066-.015-.077,0-.033.048-.029.048-.029-.039-.031-.054.032-.084.053-.057-.022.006-.052.008-.088-.04-.01-.094.016-.115,0,0-.009,0-.015.014-.021-.06.017-.1-.066-.167-.039l0-.016a.3.3,0,0,1-.039.073c-.019-.011-.054.011-.04-.027.011.008.02-.005.032-.011l-.028,0c.012-.059.036,0,.059-.035-.048-.008-.115,0-.136-.027.021-.051.077.025.063-.04l.034.046c.012-.1.025.022.042-.077-.052-.052-.083-.017-.136-.066-.029.019-.018.042-.046.061-.112,0,0-.159-.1-.128-.034.024-.07.082-.1.028l.043-.049c-.06-.034-.073.065-.12,0,.021-.018.057,0,.051-.008-.023-.064-.045.019-.076,0l.015-.053c-.072-.02-.16-.014-.238-.029.01-.014.028-.026.016-.048a.821.821,0,0,1-.3-.131l-.051.039a.02.02,0,0,1,0-.032c-.041-.024-.006.03-.03.045a.023.023,0,0,1-.011-.043l-.088.028-.049.013-.02.008a.037.037,0,0,1-.021-.01.107.107,0,0,1-.039-.034l.018-.008c-.05-.037-.09.074-.128.017l.011-.005c-.116-.053-.256-.027-.348-.1-.02.068-.128-.032-.133.066-.073-.042-.054-.063-.162-.081-.029,0-.032.065-.062.082l-.011-.049-.034.06-.038-.052-.028.021a.037.037,0,0,1,.034.029.112.112,0,0,1-.135-.024c-.033.028-.066.052-.1.081,0-.019.01-.034.02-.051-.039.071-.03-.044-.066.022.011.007.008.029.011.038a.149.149,0,0,0-.136.046l-.008-.034a1.329,1.329,0,0,0-.231.165c.039-.007.067.046.048.066l-.04-.035c0,.037.034,0,.029.052-.03.017-.055-.032-.049-.059l-.023.042c-.012-.011-.009-.024-.019-.041.007.037-.095.007-.077.069l-.012-.01a1.29,1.29,0,0,0-.145.171c.033.032,0,.047.018.09-.046.034-.117.061-.152.123-.009.053.024.034.034.066-.037-.02-.071.041-.077-.005a.511.511,0,0,0-.064.207c.021,0,.032-.011.042,0s-.033.031-.05.021l0-.006c.009.124-.213.219-.148.339l0-.007.026.1c-.013.043-.028-.032-.057,0,.053.115-.029.169.015.26C2300.461,1082.494,2300.6,1082.662,2300.547,1082.763Zm4.043.876a.2.2,0,0,1-.022-.033l.024-.016A.046.046,0,0,1,2304.59,1083.639Zm.574-.725-.044,0,.008-.035A.077.077,0,0,1,2305.164,1082.914Zm.026-.251a.061.061,0,0,1-.045.007c0-.013,0-.026,0-.039C2305.16,1082.641,2305.175,1082.651,2305.19,1082.663Zm-1.785-1.729.023.006-.023,0Zm-.051-.015c0,.016-.011.03-.019.027.008-.009-.01-.024-.02-.041C2303.326,1080.91,2303.339,1080.914,2303.354,1080.919Z"/>
      <path id="路径_193" data-name="路径 193" class="cls-1" d="M2302,1080.665l0,.011.007-.012Z"/>
      <path id="路径_194" data-name="路径 194" class="cls-1" d="M2305.116,1083.248l-.015-.013h0Z"/>
      <path id="路径_195" data-name="路径 195" class="cls-1" d="M2302.64,1084.4l-.007,0C2302.616,1084.406,2302.628,1084.4,2302.64,1084.4Z"/>
      <path id="路径_196" data-name="路径 196" class="cls-1" d="M2303.453,1084.2a.147.147,0,0,1-.019.027C2303.449,1084.227,2303.46,1084.225,2303.453,1084.2Z"/>
      <path id="路径_197" data-name="路径 197" class="cls-1" d="M2301.7,1084.2h0l-.005,0Z"/>
      <path id="路径_198" data-name="路径 198" class="cls-1" d="M2305.245,1082.433h-.007l.009.009Z"/>
      <path id="路径_199" data-name="路径 199" class="cls-1" d="M2305.272,1082.784c0-.018.038-.046.028-.073l-.014,0C2305.313,1082.722,2305.245,1082.765,2305.272,1082.784Z"/>
      <path id="路径_200" data-name="路径 200" class="cls-1" d="M2303.834,1084.143l0-.039-.028.024Z"/>
      <path id="路径_201" data-name="路径 201" class="cls-1" d="M2294.916,1092.987a.179.179,0,0,1-.052.047.419.419,0,0,0,.2-.141c-.09.055-.063.022-.17.087-.023-.007,0-.05.033-.074-.025.013,0-.039-.061,0C2294.821,1092.978,2294.842,1093.008,2294.916,1092.987Z"/>
      <path id="路径_202" data-name="路径 202" class="cls-1" d="M2295.238,1093.035a.067.067,0,0,0-.031.011h.019Z"/>
      <path id="路径_203" data-name="路径 203" class="cls-1" d="M2294.629,1091.481c-.026,0-.054,0-.082.005C2294.611,1091.488,2294.631,1091.531,2294.629,1091.481Z"/>
      <path id="路径_204" data-name="路径 204" class="cls-1" d="M2295.238,1093.051l-.012,0a.109.109,0,0,0-.021.027C2295.221,1093.058,2295.231,1093.051,2295.238,1093.051Z"/>
      <path id="路径_205" data-name="路径 205" class="cls-1" d="M2298.415,1091.376a.185.185,0,0,0,.067-.015l-.022-.008Z"/>
      <path id="路径_206" data-name="路径 206" class="cls-1" d="M2297.47,1093.122Z"/>
      <path id="路径_207" data-name="路径 207" class="cls-1" d="M2295.71,1090.934l.02-.012-.02.007Z"/>
      <path id="路径_208" data-name="路径 208" class="cls-1" d="M2295.744,1093.427l-.022.032h0Z"/>
      <path id="路径_209" data-name="路径 209" class="cls-1" d="M2298,1092.351v-.008C2298,1092.319,2298,1092.332,2298,1092.351Z"/>
      <path id="路径_210" data-name="路径 210" class="cls-1" d="M2297.47,1093.122a.232.232,0,0,1,0-.051C2297.45,1093.075,2297.438,1093.081,2297.47,1093.122Z"/>
      <path id="路径_211" data-name="路径 211" class="cls-1" d="M2298.373,1091.543h0v0Z"/>
      <path id="路径_212" data-name="路径 212" class="cls-1" d="M2297.5,1093.046c-.025,0-.034.007-.036.025C2297.483,1093.067,2297.5,1093.065,2297.5,1093.046Z"/>
      <path id="路径_213" data-name="路径 213" class="cls-1" d="M2295.12,1092.91l-.011.009h.015Z"/>
      <path id="路径_214" data-name="路径 214" class="cls-1" d="M2295.064,1092.921h.031C2295.09,1092.915,2295.086,1092.906,2295.064,1092.921Z"/>
      <path id="路径_215" data-name="路径 215" class="cls-1" d="M2295.342,1093.152c-.01-.017.008-.083-.024-.082l-.018.019C2295.34,1093.058,2295.294,1093.185,2295.342,1093.152Z"/>
      <path id="路径_216" data-name="路径 216" class="cls-1" d="M2297.089,1093.3l-.052-.025.035.068Z"/>
      <path id="路径_217" data-name="路径 217" class="cls-1" d="M2307.834,1088.212a1.232,1.232,0,0,0,.176.222,1.636,1.636,0,0,0,.262.184c.013.052-.037.036-.058.041.131.074.32.155.331.017-.182-.05-.168-.115-.371-.142-.1-.075-.142-.174-.1-.19C2308.025,1088.332,2307.935,1088.192,2307.834,1088.212Z"/>
      <path id="路径_218" data-name="路径 218" class="cls-1" d="M2309.169,1089.973l.036.1.018,0A.509.509,0,0,0,2309.169,1089.973Z"/>
      <path id="路径_219" data-name="路径 219" class="cls-1" d="M2306.835,1090.1c.007,0,.008-.007.013-.011C2306.833,1090.091,2306.826,1090.093,2306.835,1090.1Z"/>
      <path id="路径_220" data-name="路径 220" class="cls-1" d="M2309.249,1090.262a.347.347,0,0,0-.021-.11A.506.506,0,0,1,2309.249,1090.262Z"/>
      <path id="路径_221" data-name="路径 221" class="cls-1" d="M2303.537,1093.656a.33.33,0,0,1,.109.065C2303.6,1093.662,2303.9,1093.588,2303.537,1093.656Z"/>
      <path id="路径_222" data-name="路径 222" class="cls-1" d="M2309.173,1090.093a.084.084,0,0,1,.055.059l-.023-.075C2309.19,1090.074,2309.178,1090.075,2309.173,1090.093Z"/>
      <path id="路径_223" data-name="路径 223" class="cls-1" d="M2284.382,1094.587c-.034-.123-.079-.243-.1-.368A2.32,2.32,0,0,0,2284.382,1094.587Z"/>
      <path id="路径_224" data-name="路径 224" class="cls-1" d="M2284.1,1093.1a.81.81,0,0,0,.059-.214.147.147,0,0,0-.024-.045Z"/>
      <path id="路径_225" data-name="路径 225" class="cls-1" d="M2284.377,1091.373c0-.015.008-.031.01-.042A.374.374,0,0,0,2284.377,1091.373Z"/>
      <path id="路径_226" data-name="路径 226" class="cls-1" d="M2308.829,1089.37c.019-.078.146.088.2.157a3.342,3.342,0,0,0-.234-.393.6.6,0,0,0-.247-.213l.065.155c-.055-.076.036-.082.088-.03.182.157.125.3.106.323l-.091-.137c-.086.225.306.569.352.911l-.132-.081a3,3,0,0,0-1.381-1.914c-.01-.006-.019-.008-.029-.013a.792.792,0,0,0,.114-.11.19.19,0,0,0,.075.067l.136-.036-.186-.093-.006,0a.167.167,0,0,0-.055-.118.636.636,0,0,0-.342-.19,1.008,1.008,0,0,0-.5.176.754.754,0,0,0-.177.013,1.092,1.092,0,0,1,.412-.165.544.544,0,0,0-.509.27.319.319,0,0,0-.206.093,1.212,1.212,0,0,0-.1.482c-.074.042-.047-.253-.174.063.023.236.161-.176.15.183a1.276,1.276,0,0,0-.079.2c-.014.048-.006.107.066.234-.023.052-.067,0-.115-.111a1.41,1.41,0,0,0,.23.411.478.478,0,0,0,.294.19.684.684,0,0,0,.063.075.535.535,0,0,0,.054.052c.038.034.085.063.123.094.065.072.114.132.055.173a.491.491,0,0,1,.279.242c-.131-.068-.066.03-.044.162.04.127.026.3-.06.266a.506.506,0,0,1,.068.422c-.028.182-.093.379-.127.552a.151.151,0,0,1,.008-.091.937.937,0,0,1-.242.287c.1.084-.035.36-.093.534-.247.1-.018-.207-.16-.222.044.027,0,.118-.043.2s-.094.153-.036.157c-.178.069-.142.071-.271.045.077.148-.122.116-.2.282-.276.072-.134-.094-.372.092-.144.023.059-.151.059-.151-.262.138-.073.169-.1.261-.324.182-.192-.011-.328-.016-.2.11-.329.275-.5.319-.018-.015-.052-.012-.022-.047-.208.168-.707.192-.976.353a.088.088,0,0,1-.043-.022.192.192,0,0,1,.072.153c-.142.028-.256.119-.322.048.089-.01.092-.041.13-.072l-.147.055c-.151-.093.2-.066.187-.151a3.215,3.215,0,0,1-.85.2c-.057-.1.525-.093.214-.157.117,0,.235,0,.352,0-.286-.135.211-.016-.055-.167-.455.024-.5.115-.962.118-.1.067.04.088-.06.155-.654.148-.53-.248-1.01-.083-.125.076-.169.218-.521.153l.116-.127c-.456,0-.255.185-.732.11.084-.05.355-.047.286-.061-.154-.046-.208-.027-.253,0a.473.473,0,0,1-.072.049c-.028.015-.035.025-.067.026a.6.6,0,0,1,.01-.11c-.049.007-.114.024-.206.044l-.155.031-.09.015-.047.007.011-.016a1.15,1.15,0,0,1,.08-.1.393.393,0,0,0,.18-.047.5.5,0,0,1,.081-.113l.069-.077c.063-.072.123-.148.182-.225a4.918,4.918,0,0,0,.614-.975,2.219,2.219,0,0,0,0-.3c.019-.062.075-.106.073-.033.1-.273-.052-.028-.06-.17.024-.158.094-.2.1-.094a4.869,4.869,0,0,0-.069-.969c-.059-.346-.152-.694-.218-.956l.066.085c-.14-.405-.367-.33-.516-.678l.057.047a2.324,2.324,0,0,0-1.07-.83,3.713,3.713,0,0,0-1.218-.212c-.056.078-.279.1-.486.174s-.393.173-.368.268l-.17.066c-.022,0-.041,0-.055,0a.4.4,0,0,1-.065-.01l-.042-.064c0-.011-.021-.024-.017-.031-.049-.029-.113-.07-.186-.106-.187-.081-.319.01-.552-.022l.014-.1a3.029,3.029,0,0,0-.338.058l-.166-.131-.23.028c.092.005.193.043.179.071a3.836,3.836,0,0,1-.881,0,2.717,2.717,0,0,0-.735.43c0-.026.033-.067.082-.112-.177.127-.064-.1-.319.168.058-.018.013.066.018.087a1.62,1.62,0,0,0-.693.737l-.022-.093a3.271,3.271,0,0,0-.537,1.926c.038-.252.152-.184.163.009l-.1.082c.072.125.028-.207.122.05,0,.247-.108.182-.152.034a1.955,1.955,0,0,0,.07.306c-.028.023-.057-.046-.1-.06a.8.8,0,0,1,.046.344.619.619,0,0,0,.128.366l-.025.027a4.1,4.1,0,0,0,.785,1.329c.074-.045.195.131.36.2a2.954,2.954,0,0,0,.2.233l.1.119c.028.029.014.019.022.03l.013.02a.252.252,0,0,0,.107.114l.011,0,.051.015a.15.15,0,0,1,.02.01.2.2,0,0,0,.048.011c.036.006.086.008.1.03-.172-.015-.281.041-.3-.018l-.158.088-.647.3c.077.01.159,0,.128.039-.109.051-.27.05-.265.006l.027-.017a3.114,3.114,0,0,1-1.168.249,3.972,3.972,0,0,0-1.056.131l.031-.01c-.2.046-.392.082-.591.115-.274-.018.164-.061-.038-.114a4.388,4.388,0,0,1-1.506-.122,3.353,3.353,0,0,0-.792-.431,1.548,1.548,0,0,1-.722-.614l-.022.06c-.132-.057-.071-.139-.118-.214-.029.036.042.136-.031.094a2.2,2.2,0,0,1-.488-1.571,1.571,1.571,0,0,1,.719-1.27,1.075,1.075,0,0,0,.222-.21.609.609,0,0,0,.087-.214c.021-.065.037-.135.077-.236a1.531,1.531,0,0,0,.068-.181,1.43,1.43,0,0,0,.072-.271.968.968,0,0,1,.07.276,1.343,1.343,0,0,0-.269-1.042,1.173,1.173,0,0,0-.973-.487,1.188,1.188,0,0,0-.531.154c-.131.078-.23.152-.344.231s-.2.176-.3.269a3.769,3.769,0,0,0-.251.306c.019-.065,0-.085.071-.16a1.072,1.072,0,0,0-.337.366c-.086.159-.137.3-.111.321-.089.135-.069,0-.146.075-.155.177-.148.544-.259.625-.013.01-.009-.028,0-.065-.044.179-.187.59-.072.488a5.414,5.414,0,0,0-.145,1.03c.093.2-.016.659.137.7-.074,0-.077.166-.042.366a1.573,1.573,0,0,0,.2.52c-.068-.062.024.215-.064.146.106.261.238.482.284.4a1.234,1.234,0,0,0,.357.644c.154.171.3.3.311.486a6.036,6.036,0,0,0,1.944,1.17c-.088.133-.713-.335-.757-.2a13.825,13.825,0,0,0,1.668.541c.162.06-.112.039-.175.041a6.69,6.69,0,0,0,1.879.242c0,.013-.067.026-.128.034.117,0,.272.032.261-.034l-.115.013c-.179-.1.466-.184.482-.244-.193.2.576.033.275.284.076-.017.171-.055.151-.1.113.006.151.029.039.087.416-.062.26-.125.634-.163,0,.033-.072.053-.106.095a1.787,1.787,0,0,1,.678-.195c-.016.022.025.041-.069.055.538-.107.869-.345,1.45-.455-.126.187.205-.017.272.087.1-.044.2-.087.293-.136l-.14-.012c.265-.092.465-.257.7-.311l-.174.123c.159-.074.32-.14.475-.218-.095.026-.193.048-.29.07.237-.163-.083-.126.267-.24a3.031,3.031,0,0,1,.413-.1h0a1.155,1.155,0,0,1,.413-.252c.065.01.021.138.064.146.077-.148.566-.325.662-.5-.036.051-.009.106.014.109l.058-.128c.124-.041.147-.04.154.015.254-.13-.089-.1.146-.2l.048.017c-.019,0-.016.01-.042.017,0,0-.006.01-.016.019l.018-.008.11.026.153.026.324.033c.214.016.422.029.627.064.115.132-.373,0-.24.112.62.038,1.277-.068,1.864-.053l-.11-.011c.078-.172.44.077.735-.018-.072.016-.091.1-.072.08a8.01,8.01,0,0,0,1.422-.185l-.071.049c.239.021.621-.025.878-.028.072-.051.218-.056.124-.112.816.175,1.478-.3,2.2-.246-.083.021-.19.079-.124.067.194-.058.389-.113.579-.182-.065-.061-.087-.019-.224-.048a1.02,1.02,0,0,1,.357-.178c-.244.119.035.115.161.121-.025-.015,0-.052-.011-.071.339.024,0-.155.434-.214l-.007.045a3.857,3.857,0,0,1,.418-.24c.1.048-.136.111-.121.176.225-.1.367-.344.595-.379-.078.071-.207.146-.292.208a.839.839,0,0,0,.442-.131l-.017.007c.132-.051.254-.124.382-.187l-.106.037c.133-.348.491-.407.687-.8-.192.373.008.1.055.194.1-.051.232-.157.22-.1.074-.2.281-.211.353-.519.036.009.126-.178.166-.1.114-.244-.079.026-.1-.016a3.508,3.508,0,0,1,.332-.616,1.539,1.539,0,0,0,.231-.8,3,3,0,0,0-.109-.926c0-.047,0-.095,0-.142.045-.074.105.149.105.149a1.441,1.441,0,0,0,.018-.34,2.228,2.228,0,0,0-.073-.322c.031.042.054-.01.07-.087-.055-.185-.137-.1-.158-.349a.5.5,0,0,1,.171.15,1.536,1.536,0,0,0-.156-.309C2308.955,1089.564,2308.9,1089.466,2308.829,1089.37Zm-14.037,1.352c.009.02.037.021.062.035a.084.084,0,0,0-.03.019C2294.8,1090.754,2294.784,1090.727,2294.792,1090.722Zm0,.088-.009.018.008-.019Zm.078,2.054.089-.06-.041,0-.006,0a.365.365,0,0,0,.1-.15l-.1.017.048-.057.03.03c.039-.061-.018-.034-.062-.023a.209.209,0,0,0,.053-.065l-.146.042c.046-.038.109-.048.118-.093-.069.018-.1.093-.156.085.043-.059.094-.082.03-.075a.116.116,0,0,1,.074-.032c-.051,0-.05-.046-.126-.017.059-.063-.062-.066.066-.131-.034.01-.12.012-.136-.007.171-.035-.028-.084.146-.147-.155.033-.1-.073-.2-.1.013,0,.038,0,.033,0,0-.033.042-.055.066-.081a.48.48,0,0,1-.246-.015c.109-.066.151-.013.261-.053-.1.027-.115-.037-.2-.007a.312.312,0,0,1,.132-.066c-.157.024-.031-.02-.131-.027.07-.053.143-.032.091-.068a.131.131,0,0,1,.106,0c0-.04-.118-.006-.187-.007-.039-.051.085-.033.144-.055-.035-.028-.144-.048-.14-.074a.128.128,0,0,1,.052,0c-.1-.036-.005-.1-.118-.15a.1.1,0,0,1,.03,0,1.255,1.255,0,0,1-.164-.01c0-.023-.071-.052.007-.051,0,.014.028.019.052.028l-.032-.027c.113-.006.035.036.118.046-.035-.046-.111-.113-.076-.142.109.017.022.083.126.059l-.05.041c.178-.009-.018.025.172.021.043-.047-.047-.074,0-.12-.055-.029-.088-.02-.143-.05-.077-.125.279.025.166-.079-.061-.042-.186-.108-.1-.12l.1.068c.037-.041-.14-.112-.037-.127.037.035.013.061.03.061.1.016-.047-.059-.031-.088l.095.054c.021-.057,0-.163.028-.219a.211.211,0,0,0,.069.073c.015-.087.135-.083.218-.045-.005-.034-.007-.065-.009-.1.007,0,.026.037.026.056.038.025-.019-.057-.018-.1.015-.012.038.045.037.075.016-.094.12-.206.185-.106l-.009.028c.04.04.049-.2.092-.1l-.009.015c.089.043.227,0,.217.156.082-.114.025.085.142-.062-.021.1-.061.123-.075.194,0,.015.1-.053.135-.045l-.085.052a.712.712,0,0,1,.1-.028l-.1.066.03.005a.159.159,0,0,1,.061-.043c.027.006.019.031,0,.055a.177.177,0,0,1-.064.1,1.162,1.162,0,0,0,.156.13c-.036.017-.066,0-.1-.013.137.038-.082.07.049.1.012-.023.054-.027.072-.037-.026.071.039.163.116.2l-.06.037a.943.943,0,0,0,.4.238c-.039-.053.028-.153.068-.147l-.027.1c.05-.048-.023-.054.057-.1.041.032-.009.127-.053.144a.416.416,0,0,0,.077-.009c-.007.031-.028.042-.046.078.046-.053.092.138.163.039l0,.031a1,1,0,0,0,.359-.011c0-.091.048-.07.074-.149a.465.465,0,0,0,.306.019c.057-.069-.007-.079,0-.14.038.076.134.013.11.094a.508.508,0,0,0,.229-.271c-.036-.01-.062-.009-.074-.035.011-.027.068-.025.1.005v.011c.017-.111.12-.157.214-.241s.163-.186.093-.272l.008.009-.082-.148c0-.011.007-.017.012-.018s.01-.006.015,0c.021.008.051.044.086.013l-.009-.011c-.059-.018-.053-.035-.039-.044s.028-.011,0-.046c.114.053.109.054.107.035s0-.051.038.021l-.022-.054c-.015-.055.017.029.022.042-.013-.043-.02-.049-.027-.079.012-.042.088-.021.094.021s-.011.089-.01.131c0,.026.253-.164.17-.035l-.1.042c.158.014.084.187.2.276-.025,0-.057,0-.058-.009-.073.037.011.086.074.083-.006.019-.057.01-.088.023s.1.055.024.071a.053.053,0,0,1-.032-.01c.04.014-.007.07.082.058-.047.041.034.089-.023.118.094.04-.062.067.075.1-.14-.032-.132.049-.076.1-.04-.022-.051.011-.106-.019-.006.031.008.069.08.089-.185-.008.081.179-.142.118a.682.682,0,0,1-.015.35c-.118-.085.053-.1-.081-.181,0,.108.073.23-.018.287-.031.008-.041-.05-.056-.071-.011.115-.128.138-.127.257a.069.069,0,0,1-.017-.041c-.008.017-.044.016.006.059v-.024c.092.043.1.188.133.226-.117-.153-.1.034-.238-.168a.125.125,0,0,0,.048.079c-.022,0-.044-.011-.068-.058-.019.07.046.1,0,.144-.022-.023-.022-.04-.045-.071.023.065.046.132-.01.147-.011-.016-.033-.031-.021-.04-.056.064,0,.224-.11.242-.07-.124-.054-.013-.137-.1l-.015.06.054.032c-.036.027-.011.12-.066.115l-.006-.06-.051.072.066.005c0,.077.1.115.032.127,0-.017-.039.026-.1-.015.006.044.012.089-.035.086-.031-.025-.077-.109-.1-.125.045.092-.069.085-.026.187a.273.273,0,0,0-.057-.084l.035.075c-.033-.008-.043-.016-.072-.058-.061.026.111.109.009.1,0-.009-.01-.017-.007-.034-.083.018-.088.129-.17.139-.089-.086.032-.06-.048-.128-.068.076-.083.24-.179.276h.022c.089.147-.108-.026-.1.069a.175.175,0,0,0-.034-.069c-.068.015-.093.12-.122.208l-.012-.046c-.04-.019-.065.02-.091.014.005.051-.011.054.01.117-.066-.131-.083-.115-.13-.085s-.106.052-.127-.068c.013.005.043-.025.033-.029l-.1,0c-.02.073-.005.047-.007.109-.027.037-.066.058-.089.049.06-.029.043-.112.042-.157-.006.022-.021.043-.028.065,0-.142-.066.137-.1.026l.019-.035c-.032.008-.076.046-.1.024.025-.084.042-.026.073-.09-.038-.01-.14.116-.137.022.026-.014.048,0,.074-.018.007-.109-.008-.087-.026-.114v0l-.038-.07,0,.032c-.145.178-.107-.007-.236.088.125-.09.048-.065.1-.148,0-.032-.008-.071.011-.091-.066.053-.012-.078-.107,0,.015-.028-.026-.02.022-.084-.047,0-.022.052-.045.084-.112.058-.048-.185-.2-.114-.089.005-.16.064-.243.071l-.015-.011a.154.154,0,0,1,.08-.063c0-.06-.029-.072-.081-.069a.148.148,0,0,0,.048-.073c-.027-.013-.091.074-.089.013a.739.739,0,0,1,.106-.075c-.045,0-.109.019-.155.015.031-.046.073-.045.106-.063a.194.194,0,0,0-.178.018l0,.04c-.014-.007.047-.058.066-.062.071-.024.014.056-.006.081l-.033,0c-.107.151.1.052.129.091l-.081.066a2.849,2.849,0,0,1-.3-.288l0,0c.041-.032.081-.063.119-.1C2294.865,1092.852,2294.861,1092.861,2294.871,1092.864Zm1.406,1.053a.1.1,0,0,1,.045-.059c0,.02-.007.046-.012.07Zm-1.182-.646c-.012-.01-.023-.024-.036-.035l.083-.035A.235.235,0,0,1,2295.095,1093.271Zm.205.151a.194.194,0,0,1,.06-.04l-.028.063Zm4.154.494.048-.054h0Zm.18-.194c-.05.009-.082,0-.05-.035.01.019.1-.052.155-.078C2299.708,1093.639,2299.671,1093.68,2299.634,1093.722Zm4.219,1.885a.134.134,0,0,1-.019-.075l.209-.035C2304.032,1095.531,2303.985,1095.567,2303.853,1095.607Zm5.012-3.485c.024-.081.043-.163.063-.246a.412.412,0,0,1,.032.186C2308.931,1092.083,2308.9,1092.1,2308.865,1092.122Zm.137-1.712c-.014-.1-.032-.2-.055-.3a1.747,1.747,0,0,1,.134.234C2309.066,1090.389,2309.034,1090.422,2309,1090.41Z"/>
      <path id="路径_227" data-name="路径 227" class="cls-1" d="M2293.809,1088.827a1.324,1.324,0,0,0,.114-.095C2293.884,1088.762,2293.844,1088.8,2293.809,1088.827Z"/>
      <path id="路径_228" data-name="路径 228" class="cls-1" d="M2295.9,1088.461l0,.022c.023,0,.046-.005.068-.006A.471.471,0,0,0,2295.9,1088.461Z"/>
      <path id="路径_229" data-name="路径 229" class="cls-1" d="M2305.488,1095.345a.09.09,0,0,0,.052.008C2305.537,1095.347,2305.515,1095.346,2305.488,1095.345Z"/>
      <path id="路径_230" data-name="路径 230" class="cls-1" d="M2306.946,1094.739a1.938,1.938,0,0,0,.209-.091Z"/>
      <path id="路径_231" data-name="路径 231" class="cls-1" d="M2307.957,1094.033a.09.09,0,0,0-.01-.044h0Z"/>
      <path id="路径_232" data-name="路径 232" class="cls-1" d="M2289.778,1097.988l-.048,0C2289.618,1098,2289.694,1098,2289.778,1097.988Z"/>
      <path id="路径_233" data-name="路径 233" class="cls-1" d="M2295.273,1096.592a1.193,1.193,0,0,1-.147.115C2295.221,1096.674,2295.292,1096.64,2295.273,1096.592Z"/>
      <path id="路径_234" data-name="路径 234" class="cls-1" d="M2284.394,1094.627h0l-.014-.04Z"/>
      <path id="路径_235" data-name="路径 235" class="cls-1" d="M2295.126,1096.707a1.2,1.2,0,0,0-.242.1A.773.773,0,0,0,2295.126,1096.707Z"/>
      <path id="路径_236" data-name="路径 236" class="cls-1" d="M2308.783,1088.962a.015.015,0,0,1-.016,0l.047.053Z"/>
      <path id="路径_237" data-name="路径 237" class="cls-1" d="M2308.767,1088.963l-.047-.051C2308.737,1088.938,2308.753,1088.96,2308.767,1088.963Z"/>
      <path id="路径_238" data-name="路径 238" class="cls-1" d="M2308.622,1088.8l.1.108C2308.693,1088.87,2308.661,1088.816,2308.622,1088.8Z"/>
      <path id="路径_239" data-name="路径 239" class="cls-1" d="M2309.332,1090.657l-.027-.014c.05.079-.058.375-.019.489A1.47,1.47,0,0,0,2309.332,1090.657Z"/>
      <path id="路径_240" data-name="路径 240" class="cls-1" d="M2297.563,1096.052l.086-.066-.243,0Z"/>
    </g>
    <g id="组_18" data-name="组 18">
      <path id="路径_241" data-name="路径 241" class="cls-1" d="M2327.236,1083.81c.116,0,.321.029.321.264s-.219.263-.321.263h-7.188a14.057,14.057,0,0,1-1.054,1.888h4.728c1.508,0,1.728.308,1.728,1.494v5.84c0,1.127-.6,1.274-1.567,1.274h-1.332c-.161,0-.4,0-.4-.263s.234-.264.4-.264h.79c.806,0,.937-.161.937-.937v-1.6h-5.431v2.431c0,.219-.043.732-.585.732-.6,0-.6-.616-.6-.732v-6.251a11.258,11.258,0,0,1-3.192,2.547.245.245,0,0,1-.263-.263c0-.118.073-.206.205-.293a12.119,12.119,0,0,0,4.45-5.607h-4.3c-.117,0-.337-.03-.337-.263s.235-.264.337-.264h4.48c.132-.454.263-1.1.366-1.625a.632.632,0,0,1,.658-.6.659.659,0,0,1,.688.644,6.077,6.077,0,0,1-.468,1.581Zm-2.958,4.919v-1.04c0-.79-.161-.937-.937-.937h-3.557c-.8,0-.937.161-.937.937v1.04Zm-5.431.527v1.991h5.431v-1.991Z"/>
      <path id="路径_242" data-name="路径 242" class="cls-1" d="M2330.166,1094.364c0-.248.1-.351.41-.761a10.08,10.08,0,0,0,.937-1.58.306.306,0,0,1,.278-.221.271.271,0,0,1,.264.294,12.122,12.122,0,0,1-.615,2.224c-.117.294-.278.6-.7.6A.551.551,0,0,1,2330.166,1094.364Zm4.377-6.177h2.02c.1,0,.322.029.322.264s-.219.263-.322.263h-2.02v1.6h2.489c.1,0,.322.029.322.263s-.22.264-.322.264h-6.192c-.1,0-.322-.03-.322-.264s.219-.263.322-.263h2.708v-1.6h-2.24c-.1,0-.322-.029-.322-.263s.22-.264.322-.264h2.24V1086.9h-1.464c-1.23,0-1.376-.44-1.376-1.2v-2.239c0-.864.249-1.2,1.376-1.2h3.952c1.215,0,1.377.44,1.377,1.2v2.239c0,.864-.249,1.2-1.377,1.2h-1.493Zm-.995-5.4h-.981c-.746,0-.82.191-.82.835v1.918c0,.687.117.834.82.834h.981Zm-1.332,2.079c-.044-.176-.322-1-.322-1.1a.251.251,0,0,1,.249-.264c.146,0,.219.073.453.352.279.337.835,1,.835,1.347a.546.546,0,0,1-.556.556C2332.494,1085.757,2332.391,1085.625,2332.216,1084.864Zm.6,9.178c0-.219.044-1.112.029-1.317s-.029-.483-.029-.586a.3.3,0,0,1,.293-.322c.146,0,.205.132.248.22a7.971,7.971,0,0,1,.572,2.123.527.527,0,0,1-.527.57C2332.962,1094.73,2332.816,1094.482,2332.816,1094.042Zm1.947-.8a10.408,10.408,0,0,0-.263-1.127,1.2,1.2,0,0,1-.059-.249.238.238,0,0,1,.249-.248c.161,0,.205.1.746.936a3.208,3.208,0,0,1,.527,1.2.534.534,0,0,1-.483.556C2335,1094.306,2334.938,1094.145,2334.763,1093.237Zm-.22-6.865h1c.7,0,.82-.147.82-.834v-1.918c0-.644-.074-.835-.82-.835h-1Zm1.728-2.562a5.126,5.126,0,0,1-.849,1.625c-.205.278-.293.41-.454.41a.274.274,0,0,1-.263-.278c0-.088.175-.688.233-.967.044-.16.132-.819.191-.995a.586.586,0,0,1,.556-.381A.578.578,0,0,1,2336.271,1083.81Zm0,7.51a4.085,4.085,0,0,1,1.39,2.035.525.525,0,0,1-.541.512c-.4,0-.454-.2-.571-.717a6.35,6.35,0,0,0-.425-1.289.936.936,0,0,1-.117-.278A.256.256,0,0,1,2336.271,1091.32Zm4.714-6.325h2.4c.1,0,.322.03.322.264s-.2.264-.322.264h-2.4v3.074h1.054c1.127,0,1.375.336,1.375,1.2v3.572c0,.762-.161,1.2-1.375,1.2h-2.811c-1.127,0-1.376-.337-1.376-1.2V1089.8c0-.776.146-1.2,1.376-1.2h.659v-6.207c0-.117,0-.674.556-.674.483,0,.542.454.542.674Zm1.317,4.963c0-.644-.088-.834-.834-.834h-1.684c-.7,0-.82.146-.82.834v3.25c0,.645.074.834.82.834h1.684c.7,0,.834-.146.834-.834Z"/>
      <path id="路径_243" data-name="路径 243" class="cls-1" d="M2346.755,1085.771a10.61,10.61,0,0,1,1.464.454c.38.147.746.278.746.7a.581.581,0,0,1-.6.585c-.234,0-.322-.073-.629-.366a6.845,6.845,0,0,0-1.084-.833c-.146-.1-.19-.162-.19-.279A.3.3,0,0,1,2346.755,1085.771Zm3.133,3.353a28.749,28.749,0,0,1-1.362,3.66c-.644,1.464-.79,1.683-1.23,1.683a.657.657,0,0,1-.658-.6c0-.235.117-.41.439-.878a27.192,27.192,0,0,0,2.24-3.836c.073-.161.131-.293.307-.293A.262.262,0,0,1,2349.888,1089.124Zm-2.284-6.866a8.661,8.661,0,0,1,1.566.483c.6.235.893.352.893.776a.587.587,0,0,1-.585.586c-.205,0-.249-.044-.718-.439-.351-.278-.834-.6-1.259-.893-.1-.073-.161-.132-.161-.249A.272.272,0,0,1,2347.6,1082.258Zm2.84,11.58v-3.382c0-.761.146-1.2,1.376-1.2h5.694c1.128,0,1.377.351,1.377,1.2v3.382h.6c.1,0,.322.029.322.263s-.205.263-.322.263h-9.75c-.088,0-.322-.014-.322-.263,0-.234.22-.263.322-.263Zm7.905-6.969c0,.865-.234,1.2-1.362,1.2h-4.523c-1.23,0-1.376-.439-1.376-1.2v-3.249c0-.849.249-1.2,1.376-1.2h4.523c1.216,0,1.362.439,1.362,1.2Zm-5.446,6.969v-4.055h-.527c-.7,0-.819.161-.819.849v3.206Zm4.333-10.057c0-.644-.088-.835-.834-.835h-3.352c-.718,0-.835.147-.835.835v2.928c0,.644.073.834.835.834h3.352c.717,0,.834-.146.834-.834Zm-.673,2.8a.4.4,0,0,1,.161.278.258.258,0,0,1-.249.263,9.264,9.264,0,0,1-1.888-1.391c-.234.264-1.215,1.347-1.464,1.347a.27.27,0,0,1-.264-.249.4.4,0,0,1,.118-.263,8.385,8.385,0,0,0,1.566-2.621.613.613,0,0,1,1.2.191c0,.234-.044.293-.483.82A8.2,8.2,0,0,0,2356.563,1086.577Zm-1.273,7.261v-4.055h-1.406v4.055Zm2.488,0v-3.206c0-.688-.117-.849-.834-.849h-.615v4.055Z"/>
      <path id="路径_244" data-name="路径 244" class="cls-1" d="M2366.755,1092.447c0,.834-.22,1.2-1.376,1.2h-.981c-1.2,0-1.376-.41-1.376-1.2v-9.032c0-.835.219-1.2,1.376-1.2h.981c1.2,0,1.376.41,1.376,1.2Zm-1.025-4.831v-4.143c0-.585-.088-.732-.732-.732h-.234c-.615,0-.718.117-.718.732v4.143Zm-1.684.527v4.246c0,.614.1.732.718.732H2365c.644,0,.732-.147.732-.732v-4.246Zm5.958,2.284a6.3,6.3,0,0,1-3.147,4.391.262.262,0,0,1-.263-.263.327.327,0,0,1,.175-.278c2.079-1.64,2.342-3.894,2.474-5.71H2367.5c-.1,0-.322-.029-.322-.263s.22-.263.322-.263h1.772c.043-.923.043-1.391.043-1.669h-1.507c-.1,0-.322-.029-.322-.249a.287.287,0,0,1,.322-.278h7.07c.1,0,.322.044.322.263,0,.249-.219.264-.322.264h-4.523c0,.571,0,1.127-.044,1.669h5.212c.117,0,.322.029.322.263,0,.249-.22.263-.322.263h-5.241c-.059.718-.118,1.04-.161,1.333h3.659c.513,0,.893.219.893.615a6.153,6.153,0,0,1-1.9,2.562,7.924,7.924,0,0,0,2.8,1.317c.1.029.279.088.279.292a.26.26,0,0,1-.249.264,5.792,5.792,0,0,1-1-.249,9.214,9.214,0,0,1-2.474-1.127,8.727,8.727,0,0,1-3.147,1.333,2.576,2.576,0,0,1-.264.043.271.271,0,0,1-.263-.264c0-.16.117-.234.249-.263a6.829,6.829,0,0,0,2.766-1.3c-.6-.469-1.375-1.128-1.375-1.538a.565.565,0,0,1,.571-.585.649.649,0,0,1,.57.409,5.1,5.1,0,0,0,.879,1.113,4.411,4.411,0,0,0,1.2-1.873c0-.22-.22-.22-.278-.22Zm4.7-8.286c0,.469-.4.557-.659.6a31.043,31.043,0,0,1-5.416.4c-1,0-1.1,0-1.1-.279s.278-.278.41-.278a16.258,16.258,0,0,0,5.2-.644,7.717,7.717,0,0,1,1-.38A.575.575,0,0,1,2374.7,1082.141Zm-5.138,2.9a.579.579,0,0,1-.571.557c-.337,0-.366-.117-.645-.776a6.521,6.521,0,0,1-.424-.923.272.272,0,0,1,.263-.263C2368.307,1083.634,2369.566,1084.571,2369.566,1085.039Zm2.356-.131a.534.534,0,0,1-.527.527c-.337,0-.4-.161-.585-.732a6.18,6.18,0,0,0-.322-.747.4.4,0,0,1-.059-.2.262.262,0,0,1,.264-.264C2370.883,1083.488,2371.922,1084.513,2371.922,1084.908Zm2.87-1.156c0,.541-1.406,1.873-1.64,1.873a.272.272,0,0,1-.264-.264c0-.073.015-.1.132-.292a5.794,5.794,0,0,0,.644-1.479.575.575,0,0,1,.557-.4A.59.59,0,0,1,2374.792,1083.752Z"/>
    </g>
  </g>
</svg>
